<?xml version="1.0" encoding="UTF-8"?>
<!-- Generated by Pixelmator Pro 3.6.5 -->
<svg width="550" height="400" viewBox="0 0 550 400" xmlns="http://www.w3.org/2000/svg">
    <path id="Path" fill="rgb(65, 84, 98)" stroke="none"
        d="M 267.200012 353.200012 L 419.799988 353.200012 C 421.200012 353.200012 422.5 353.299988 423.799988 353.299988 C 425.100006 353.299988 426.5 353.299988 427.799988 353.200012 L 428 353.200012 C 487.5 351 535.099976 302 535.099976 241.899994 C 535.099976 181.800003 493.299988 139.100006 439.100006 131.600006 C 425.100006 86 382.700012 52.899994 332.600006 52.899994 C 332.600006 52.899994 267.100006 225.100006 267.100006 353.200012 L 267.200012 353.200012 Z" />
    <path id="path1" fill="rgb(65, 84, 98)" stroke="none"
        d="M 221.399994 360.5 L 136 360.5 C 74.300003 360.5 24 310.299988 24 248.5 L 24 248.100006 C 26.299999 205 49.400002 170.5 90.699997 148.300003 C 115 135.200012 138.699997 130.100006 148 128.5 C 172.600006 74 211.5 52.899994 240 44.799988 C 271.600006 35.899994 297.200012 40.600006 298.299988 40.799988 L 295.600006 54.899994 C 295.399994 54.899994 271.700012 50.600006 243.300003 58.799988 C 205.5 69.600006 177.399994 96.200012 159.5 137.799988 L 157.899994 141.600006 L 153.800003 142.100006 C 153.5 142.100006 125.300003 145.899994 97.099998 161.100006 C 60.200001 181 40.5 210.5 38.400002 248.600006 C 38.400002 302.299988 82.300003 346 136 346 L 221.399994 346 L 221.399994 360.399994 L 221.399994 360.399994 Z" />
    <path id="path2" fill="rgb(65, 84, 98)" stroke="none"
        d="M 247.444412 133.637482 C 259.983551 135.668365 268.502167 147.479706 266.471283 160.01886 C 264.440369 172.557999 252.629028 181.07663 240.089874 179.045731 C 227.550735 177.014832 219.032104 165.203461 221.063004 152.664322 C 223.093903 140.125153 234.905258 131.606567 247.444412 133.637482 Z" />
    <path id="path3" fill="rgb(65, 84, 98)" stroke="none"
        d="M 199.899994 243.5 C 199.899994 259.129669 187.22966 271.799988 171.600006 271.799988 C 155.970337 271.799988 143.300003 259.129669 143.300003 243.5 C 143.300003 227.870346 155.970337 215.199997 171.600006 215.199997 C 187.22966 215.199997 199.899994 227.870346 199.899994 243.5 Z" />
    <path id="path4" fill="rgb(65, 84, 98)" stroke="none"
        d="M 168.300003 133.399994 C 168.300003 142.347015 161.047012 149.600006 152.100006 149.600006 C 143.152985 149.600006 135.899994 142.347015 135.899994 133.399994 C 135.899994 124.453003 143.152985 117.200012 152.100006 117.200012 C 161.047012 117.200012 168.300003 124.453003 168.300003 133.399994 Z" />
    <path id="path5" fill="rgb(65, 84, 98)" stroke="none"
        d="M 230.899994 353.299988 C 230.899994 362.247009 223.647018 369.5 214.699997 369.5 C 205.752991 369.5 198.5 362.247009 198.5 353.299988 C 198.5 344.352997 205.752991 337.100006 214.699997 337.100006 C 223.647018 337.100006 230.899994 344.352997 230.899994 353.299988 Z" />
    <path id="path6" fill="rgb(65, 84, 98)" stroke="none"
        d="M 310.899994 46.700012 C 310.899994 55.647003 303.647003 62.899994 294.700012 62.899994 C 285.752991 62.899994 278.5 55.647003 278.5 46.700012 C 278.5 37.752991 285.752991 30.5 294.700012 30.5 C 303.647003 30.5 310.899994 37.752991 310.899994 46.700012 Z" />
    <path id="path7" fill="rgb(65, 84, 98)" stroke="none"
        d="M 130.800003 353.299988 C 130.800003 362.247009 123.547012 369.5 114.599998 369.5 C 105.652985 369.5 98.400002 362.247009 98.400002 353.299988 C 98.400002 344.352997 105.652985 337.100006 114.599998 337.100006 C 123.547012 337.100006 130.800003 344.352997 130.800003 353.299988 Z" />
    <path id="path8" fill="rgb(65, 84, 98)" stroke="none"
        d="M 247.100006 58.700012 C 247.100006 67.647003 239.847015 74.899994 230.899994 74.899994 C 221.952988 74.899994 214.699997 67.647003 214.699997 58.700012 C 214.699997 49.752991 221.952988 42.5 230.899994 42.5 C 239.847015 42.5 247.100006 49.752991 247.100006 58.700012 Z" />
    <path id="path9" fill="rgb(65, 84, 98)" stroke="none"
        d="M 47.400002 248.5 C 47.400002 257.447021 40.147015 264.700012 31.200001 264.700012 C 22.252987 264.700012 15 257.447021 15 248.5 C 15 239.552994 22.252987 232.300003 31.200001 232.300003 C 40.147015 232.300003 47.400002 239.552994 47.400002 248.5 Z" />
    <path id="path10" fill="rgb(65, 84, 98)" stroke="none"
        d="M 88.199997 172.100006 C 88.199997 181.047012 80.947014 188.300003 72 188.300003 C 63.052986 188.300003 55.799999 181.047012 55.799999 172.100006 C 55.799999 163.152985 63.052986 155.899994 72 155.899994 C 80.947014 155.899994 88.199997 163.152985 88.199997 172.100006 Z" />
    <path id="path11" fill="rgb(65, 84, 98)" stroke="none"
        d="M 31.299999 252.699997 L 30.9 244.300003 L 166.699997 239.5 L 147.699997 129.5 L 238.899994 150.899994 L 226.699997 59.299988 L 235.100006 58.200012 L 248.899994 161.800003 L 158.199997 140.600006 L 176.600006 247.5 L 31.299999 252.699997 Z" />
    <path id="path12" fill="rgb(65, 84, 98)" stroke="none"
        d="M 118.199997 355.200012 L 110.699997 351.399994 L 172.199997 233.399994 L 218.600006 351.799988 L 210.699997 354.799988 L 171.100006 253.600006 L 118.199997 355.200012 Z" />
    <path id="path13" fill="rgb(65, 84, 98)" stroke="none"
        d="M 172.399994 249.199997 L 69.599998 175.5 L 74.5 168.699997 L 170.899994 237.800003 L 240.699997 153.699997 L 247.199997 159 L 172.399994 249.199997 Z" />
</svg>