<?xml version="1.0" encoding="UTF-8"?>
<!-- Generated by Pixelmator Pro 3.6.5 -->
<svg width="494" height="265" viewBox="0 0 494 265" xmlns="http://www.w3.org/2000/svg">
    <g id="g13061">
        <g id="use13054">
            <g id="Group">
                <path id="Path" fill="#bcbec0" stroke="#000000" stroke-width="1.5" stroke-linejoin="bevel" d="M 275.899994 201.100006 L 274.5 202.559998 L 272.140015 202.559998 L 272.140015 200.410004 L 273.970001 199.229996 L 275.899994 199.229996 L 275.899994 201.100006 Z M 279.950012 194.800003 L 279.950012 196.919998 L 278.149994 195.839996 L 278.149994 194.190002 L 279.950012 194.190002 L 279.950012 188.220001 L 275.350006 188.220001 L 264.410004 195.550003 L 261.720001 192.460007 L 261.720001 198.529999 L 255.070007 198.529999 L 258.929993 209.100006 L 271.600006 209.100006 L 281.350006 197.820007 L 281.790009 194.770004 L 279.950012 194.800003 Z M 108.349998 75.399994 L 110.870003 73.681 L 113.910004 73.681 L 111.400002 75.399994 L 108.349998 75.399994 Z M 131.320007 66.272995 L 128.100006 69.065002 L 120.639999 69.065002 L 118.330002 70.647003 L 120.110001 70.647003 L 117.629997 72.339005 L 115.860001 72.339005 L 118.330002 70.647003 L 113.459999 70.647003 L 111.349998 72.287003 L 109.199997 72.501999 L 109.629997 68.796997 L 107.970001 68.796997 L 106.029999 70.085999 L 102.43 75.401001 L 100.309998 75.401001 L 104.389999 68.796997 L 109.199997 67.768005 L 108.93 66.865005 L 105.760002 66.757004 L 104.260002 65.843994 L 102.379997 66.757004 L 100.18 66.757004 L 101.080002 64.811996 L 96.528999 62.729996 L 57.719002 62.729996 L 44.938999 76.210007 L 44.938999 86.569992 L 49.605 91.237 L 65.925003 93.335007 L 68.101997 96.636993 L 72.692001 96.475998 L 76.480003 103.916 L 83.538002 95.054993 L 100.318001 95.108002 L 101.428001 103.496002 L 104.087997 103.565994 L 104.157997 93.125992 L 131.317993 69.906006 L 133.167999 69.585999 L 134.218002 66.278992 L 131.317993 66.278992 Z M 147.380005 64.837997 L 156.860001 64.837997 L 154.889999 61.699997 L 153.110001 61.274994 L 153.110001 59.024002 Z M 77.099998 115.597992 L 73.443001 107.718002 L 76.478996 103.908005 L 72.692001 96.466003 L 68.101997 96.626999 L 65.925003 93.326004 L 49.605 91.227997 L 49.636002 91.259995 L 50.331001 98.608002 L 55.351002 108.108002 L 57.408001 106.518005 L 53.449001 98.076996 L 53.449001 93.326004 L 55.784 93.326004 L 55.875 97.744995 L 63.375 115.365005 L 75.605003 120.464996 L 78.656998 119.654999 L 81.343002 122.395004 L 82.681 120.014999 L 85.499001 120.014999 L 85.097 116.925003 L 87.512001 116.925003 L 90.653 114.585007 L 90.786003 111.175003 L 87.350998 111.115005 L 84.620003 115.595001 Z M 212.5 39.208008 L 217.039993 36.999008 L 217.039993 36.376999 L 214.789993 34.095001 L 211.639999 35.141006 L 207.860001 35.061005 L 207.059998 36.151001 L 204.910004 36.100998 L 204.910004 38.121002 Z M 252.910004 87.158005 L 252.919998 85.013992 L 250.490005 84.949997 L 250.470001 86.529999 Z M 160.830002 18.598007 L 160.830002 20.858002 L 172.110001 21.018997 L 175 26.005997 L 175 30.516006 L 169.589996 33.589005 L 169.75 39.709 L 173.149994 43.145996 L 177.169998 43.145996 L 183.309998 36.656998 L 191.979996 34.100006 L 195.229996 31.611008 L 201.789993 31.205994 L 206.380005 29.850998 L 215.029999 16.100998 L 220.360001 15.011002 L 222.240005 13.121002 L 206.869995 11.574997 L 193.589996 13.121002 L 177.509995 13.121002 L 168.240005 16.341995 Z M 422.429993 105.647995 L 421.119995 104.278 L 418.970001 107.337997 L 421.119995 109.347992 Z M 401.790009 67.718002 L 402.220001 65.302002 L 397.709991 64.576996 L 395.98999 61.757996 L 387.399994 61.757996 L 369.839996 57.410004 L 367.910004 61.757996 L 360.769989 59.584 L 355.440002 63.643997 L 372.799988 73.783997 L 392.880005 73.998993 L 395.299988 69.074997 Z M 405.600006 113.697998 L 403.019989 114.268005 L 403.019989 115.787994 L 404.070007 117.057999 L 405.600006 115.147995 Z M 395.98999 61.757996 L 397.709991 64.576996 L 402.220001 65.302002 L 401.790009 67.718002 L 395.309998 69.074997 L 392.880005 73.998993 L 372.799988 73.783997 L 355.440002 63.643997 L 347.929993 69.369003 L 349.179993 75.179993 L 341.660004 77.972992 L 343.809998 83.233002 L 351.809998 86.882996 L 352.130005 93.326004 L 373.070007 100.567993 L 376.929993 97.029999 L 385.149994 100.567993 L 384.019989 103.628006 L 388.369995 110.878006 L 395.98999 107.018005 L 400.970001 111.278 L 403.079987 110.078003 L 403.160004 112.128006 L 415.640015 107.667999 L 419.720001 98.535995 L 412.440002 86.556 L 416.179993 82.477005 L 411.880005 82.477005 L 410.5 83.369995 L 407.799988 78.934998 L 411.23999 75.927994 L 413.600006 80.432007 L 416.910004 78.154999 L 423.26001 73.781006 L 423.26001 65.298004 L 412.73999 62.613998 L 405.01001 55.042999 L 397.5 55.042999 L 399.209991 61.110001 Z M 439.380005 74.518005 L 442.320007 74.477997 L 443.570007 72.343994 L 437.040009 69.606003 L 437.170013 75.000992 L 438.459991 75.766006 Z M 431.26001 86.988007 L 430.779999 88.647003 L 437.25 87.692001 L 437.75 90.190002 L 439.220001 89.565994 L 439.380005 87.600006 L 443.720001 86.485001 L 443.48999 80.811996 L 441.519989 77.373001 L 439.559998 76.804993 L 440.679993 81.959 L 436.670013 85.595993 Z M 430.119995 90.190002 L 432.459991 89.895004 L 433.220001 91.022995 L 432.380005 93.679993 Z M 436.359985 89.089996 L 435.230011 91.143005 L 433.73999 89.451996 Z M 429.279999 124.130005 L 425.730011 123.759995 L 424.440002 122.149994 L 425.730011 119.190002 L 424.450012 116.350006 L 422.109985 116.300003 L 421.540009 121.300003 L 424.850006 125.289993 L 428.730011 125.779999 Z M 418.100006 133 L 419.670013 133.309998 L 422.459991 130.990005 L 422.399994 129.089996 Z M 430.350006 136.589996 L 430.350006 138.820007 L 432.679993 138.12001 L 431.890015 136.680008 L 433.769989 136.199997 L 432.170013 131.210007 L 430.98999 134.290009 L 427.130005 134.290009 Z M 423.480011 125.460007 L 425.140015 127.089996 L 424.600006 128.089996 L 423.26001 126.779999 Z M 425.140015 129.449997 L 426.320007 130.25 L 427.609985 128.300003 L 425.890015 128.089996 Z M 429.540009 127.410004 L 431.160004 129.5 L 432.929993 129.5 L 431.23999 126.779999 Z M 429.540009 129.169998 L 430.450012 130.76001 L 429.720001 131.729996 L 428.440002 129.800003 Z M 427.609985 130.779999 L 428.440002 132.029999 L 427.609985 133.029999 L 426.660004 131.87001 Z M 430.76001 163.540009 L 431.850006 165.040009 L 434.910004 164.669998 L 434.910004 163.540009 Z M 406.170013 145.900009 L 406.320007 150.220001 L 408.779999 154.520004 L 416.600006 154.520004 L 420.470001 149.580002 L 420.470001 140.62001 L 417.679993 140.910004 L 415.420013 145.180008 L 407.850006 146.87001 L 406.220001 145.880005 Z M 400.609985 157.180008 L 400.609985 153.880005 L 387.720001 140.51001 L 383.309998 138.820007 L 398.23999 159.150009 Z M 415.670013 163.059998 L 415.910004 164.180008 L 399.799988 161.449997 L 402.220001 159.51001 L 406.23999 161.040009 L 409.869995 160.240005 Z M 425.970001 163.059998 L 423.480011 163.059998 L 423.959991 164.669998 L 426.339996 164.669998 L 427.339996 163.860001 Z M 421.619995 165.669998 L 422.350006 166.559998 L 424.079987 166.559998 L 423.480011 165.270004 Z M 430.76001 163.540009 L 428.269989 166.320007 L 430.160004 166.559998 L 431.850006 165.040009 Z M 422.470001 158.630005 L 424.320007 158.059998 L 423.76001 154.800003 L 424.850006 153.589996 L 425.769989 156.01001 L 427.98999 156.779999 L 427.98999 155.040009 L 426.73999 152.279999 L 429.109985 150.290009 L 425.329987 150.449997 L 424.549988 149.37001 L 426.049988 147.720001 L 428.829987 148.680008 L 430.200012 148.559998 L 432.25 146.139999 L 430.450012 146.100006 L 429.279999 146.87001 L 425.410004 145.930008 L 422.850006 148.240005 L 423.029999 151.900009 L 421.540009 153.880005 Z M 436.359985 153.440002 L 435.929993 154.949997 L 440.119995 154.520004 L 440.119995 153.440002 Z M 437.329987 143.690002 L 435.929993 145.070007 L 435.399994 148.51001 L 437.329987 148.979996 L 436.899994 145.930008 L 438.019989 144.529999 Z M 446.820007 152.839996 L 446.26001 149.860001 L 441.670013 150.51001 Z M 446.51001 155.320007 L 452.910004 157.990005 L 454.059998 161.26001 L 451.929993 162.559998 L 457.410004 164.460007 L 457.410004 153.669998 L 452.959991 151.350006 L 448.809998 154.720001 L 444.420013 152.990005 L 443.929993 155.410004 Z M 427.450012 84.139999 L 423.130005 80.604996 L 421.220001 82.369003 L 423.799988 87.953003 L 426.920013 87.738007 Z M 423.130005 80.604996 L 421.220001 79.041 L 423.690002 78.718994 L 423.26001 73.779999 L 416.910004 78.153992 L 418.769989 81.684006 L 421.220001 82.369003 Z M 417.600006 137.585007 L 414.160004 142.214996 L 406.220001 145.88501 L 407.850006 146.875 L 415.420013 145.184998 L 417.679993 140.915009 L 420.470001 140.625 L 420.470001 137.345001 Z M 391.279999 137.585007 L 392.660004 142.065002 L 398.339996 146.904999 L 398.779999 145.184998 L 393.420013 137.264999 Z M 459.399994 165.165009 L 463.209991 161.665009 L 468.149994 166.485001 L 472.660004 167.404999 L 467.079987 161.824997 L 467.350006 158.875 L 457.410004 153.675003 L 457.410004 164.464996 Z M 469.859985 159.38501 L 471.869995 160.585007 L 475.339996 158.63501 L 475.339996 156.615005 Z M 472.660004 153.714996 L 476.709991 156.615005 L 478.329987 156.065002 L 474.220001 153.615005 Z M 388.369995 110.875 L 384.019989 103.625 L 385.140015 100.565002 L 382.619995 99.485001 L 379.23999 101.914993 L 377.649994 112.904999 L 380.160004 115.005005 L 381.119995 120.024994 L 382.890015 120.554993 L 384.160004 118.964996 L 386.519989 121.625 L 387.829987 126.485001 L 387.519989 131.505005 L 389.549988 127.525009 L 385.899994 114.365005 L 388.369995 112.574997 Z M 395.670013 117.054993 L 398.589996 121.024994 L 395.859985 123.764999 L 401.980011 123.764999 L 401.980011 122.205002 L 396.019989 115.865005 L 394.700012 111.785004 L 390.559998 109.764999 L 388.369995 110.875 L 388.369995 112.574997 L 390.51001 113.824997 L 390.51001 117.054993 Z M 390.51001 117.054993 L 390.51001 113.824997 L 388.369995 112.574997 L 385.899994 114.365005 L 389.549988 127.525009 L 387.519989 131.505005 L 387.399994 133.485001 L 390.940002 136.485001 L 391.279999 137.585007 L 393.420013 137.264999 L 389.980011 132.195007 L 390.779999 124.354996 L 394.649994 128.184998 L 394.649994 124.975006 L 398.589996 121.024994 L 395.670013 117.054993 Z M 394.649994 124.975006 L 394.649994 128.184998 L 396.579987 130.104996 L 398.75 129.805008 L 401.980011 127.38501 L 401.980011 123.764999 L 395.859985 123.764999 Z M 396.019989 115.865005 L 401.980011 122.205002 L 401.980011 127.38501 L 398.75 129.805008 L 398.829987 133.264999 L 405.01001 129.184998 L 404.799988 123.115005 L 398.350006 116.304993 L 398.670013 112.574997 L 400.970001 111.274994 L 395.98999 107.014999 L 390.559998 109.764999 L 394.700012 111.785004 Z M 370.25 102.664993 L 368.880005 103.304993 L 370.820007 109.434998 L 372.070007 108.225006 L 377.649994 112.904999 L 378.01001 110.404999 L 375.079987 107.664993 L 374.600006 104.384995 L 372.26001 105.345001 Z M 372.26001 102.244995 L 368.880005 101.404999 L 369.350006 99.285004 L 368.380005 98.949005 L 366.309998 102.244995 L 354.940002 97.938995 L 354.970001 94.307007 L 352.130005 93.322998 L 351.809998 86.880005 L 349.329987 85.75 L 347.040009 85.75 L 343.640015 88.166 L 343.549988 90.222992 L 345.609985 91.389999 L 346.589996 95.410995 L 342.119995 99.524994 L 339.26001 99.524994 L 339.26001 102.565002 L 341.399994 103.375 L 341.399994 105.994995 L 337.540009 107.024994 L 337.869995 107.414993 L 341.059998 108.425003 L 339.570007 109.955002 L 340.980011 111.785004 L 343.51001 112.085007 L 343.959991 109.985001 L 344.959991 109.994995 L 353.089996 133.375 L 358.25 130.205002 L 359.049988 120.804993 L 370.820007 109.434998 L 368.880005 103.304993 L 370.25 102.664993 L 372.26001 105.345001 L 374.600006 104.384995 L 375.079987 107.664993 L 378.01001 110.404999 L 379.23999 101.914993 L 382.619995 99.485001 L 376.929993 97.026993 L 373.070007 100.565002 Z M 354.970001 94.307007 L 354.940002 97.938995 L 366.309998 102.244995 L 368.380005 98.949005 Z M 369.350006 99.285004 L 368.880005 101.404999 L 372.26001 102.244995 L 373.070007 100.565002 Z M 304.940002 72.115005 L 307.350006 74.117004 L 310.420013 73.268997 L 313.140015 75.539001 L 312.670013 69.645004 L 316.859985 68.679001 L 322.380005 72.464005 L 327 71.578003 L 330.380005 76.033997 L 333.640015 75.889999 L 336.829987 73.268997 L 344.359985 72.942001 L 349.179993 75.175003 L 347.929993 69.363998 L 355.440002 63.641006 L 351.109985 61.108994 L 325.869995 52.208008 L 315.920013 54.451004 L 315.920013 58.949005 L 298.279999 58.949005 L 298.279999 64.761002 L 300.640015 67.712997 L 305.690002 65.673004 L 308.700012 67.712997 L 305.049988 69.483994 Z M 324.26001 85.994995 L 322.570007 83.257996 L 315.970001 81.164001 L 312.070007 82.464005 L 312 84.201004 L 307.029999 84.197998 L 304.290009 79.363007 L 297.73999 80.009995 L 297.73999 81.942993 L 305.690002 95.432999 L 308.049988 95.658997 L 313.529999 101.375992 L 323.619995 104.386002 L 326.420013 104.386002 L 328.450012 100.895996 L 326.200012 98.074997 L 322.980011 88.733994 Z M 313.140015 75.544998 L 310.420013 73.274994 L 307.350006 74.123001 L 312.25 78.181 L 312.070007 82.466995 L 315.970001 81.166992 L 322.579987 83.261002 L 324.269989 85.998001 L 330.549988 82.776993 L 320.200012 74.494003 L 315.809998 74.494003 Z M 339.26001 99.524994 L 342.119995 99.524994 L 346.589996 95.410995 L 345.609985 91.389999 L 343.549988 90.222992 L 343.640015 88.166 L 347.040009 85.75 L 349.329987 85.75 L 344.559998 83.570999 L 339.480011 84.304001 L 337.869995 91.281998 L 332 96.709 L 325.700012 96.645996 L 326.200012 98.074005 L 328.450012 100.895004 L 326.420013 104.384995 L 335.220001 104.384995 L 337.540009 107.024994 L 341.399994 105.994995 L 341.399994 103.375 L 339.26001 102.565002 Z M 322.380005 72.464996 L 316.859985 68.679993 L 312.670013 69.645996 L 313.140015 75.539993 L 315.809998 74.488998 L 320.200012 74.488998 L 330.549988 82.772003 L 333.940002 83.679001 L 332.399994 79.149002 L 337.209991 77.768997 L 337.480011 75.720993 L 330.380005 76.035004 L 327 71.578995 Z M 324.26001 85.994995 L 322.980011 88.733994 L 325.700012 96.647003 L 332 96.710007 L 337.869995 91.283005 L 339.480011 84.304993 L 338.440002 81.365005 L 333.940002 83.681 L 330.549988 82.774002 Z M 338.01001 80.009995 L 333.970001 78.699005 L 332.399994 79.151001 L 333.940002 83.681 L 338.440002 81.365005 L 339.480011 84.304993 L 344.559998 83.572006 L 343.809998 83.231003 L 342.329987 79.600006 Z M 336.829987 73.272003 L 333.640015 75.893005 L 337.480011 75.722992 L 337.209991 77.770996 L 333.970001 78.699005 L 338.01001 80.009995 L 342.329987 79.600006 L 341.660004 77.970993 L 349.179993 75.177994 L 344.359985 72.944992 Z M 298.279999 77.044006 L 301.160004 79.671997 L 304.290009 79.363007 L 302.109985 75.522003 L 299.75 74.938004 Z M 292.089996 75.957001 L 296.359985 77.044006 L 298.279999 77.044006 L 299.75 74.938004 L 294.299988 72.466995 L 292.089996 72.944992 Z M 297.73999 80.009995 L 301.160004 79.671997 L 298.279999 77.044006 L 296.359985 77.044006 Z M 265.190002 47.259995 L 264.059998 47.527008 L 264.350006 47.744003 L 264.029999 49.194 L 260.859985 47.744003 L 260.869995 49.626007 L 265.190002 50.727997 L 268.299988 52.151001 L 269.5 51.125 L 269.070007 48.069 L 267.48999 48.548996 Z M 260.880005 51.777008 L 263.290009 52.580002 L 263.950012 53.944 L 264.470001 55.399002 L 268.299988 52.151001 L 265.190002 50.727997 L 260.869995 49.626007 Z M 273.119995 51.125 L 269.5 51.125 L 264.470001 55.399002 L 265.269989 57.604004 L 272.480011 58.753998 L 276.980011 57.772003 L 274.299988 56.682007 L 275.910004 55.654999 Z M 263.079987 45.537003 L 262.700012 46.503006 L 264.059998 47.527008 L 265.190002 47.259995 L 267.48999 48.548996 L 269.070007 48.069 L 268.579987 44.587997 L 267.679993 45.432999 Z M 272.480011 58.757004 L 265.269989 57.606995 L 265.720001 58.858994 L 263.140015 62.076004 L 263.140015 63.895996 L 272.890015 63.895996 L 273.829987 65.677994 L 272.140015 68.326996 L 273.619995 68.945999 L 274.019989 67.718002 L 279.799988 67.718002 L 278.519989 69.046005 L 280.299988 70.052994 L 282.700012 69.865005 L 280.420013 66.953003 L 286.420013 65.677994 L 287.950012 62.242004 L 276.980011 57.774994 Z M 258.75 30.597 L 248.649994 38.005005 L 248.649994 44.593994 L 247.259995 46.770996 L 251.059998 51.145996 L 257.26001 45.656006 L 254.360001 42.056 L 260.890015 34.919006 L 262.179993 34.919006 L 260.399994 30.597 Z M 240.940002 47.266998 L 246.850006 46.300995 L 247.259995 46.772003 L 248.649994 44.595001 L 248.649994 38.005997 L 258.76001 30.598007 L 264.350006 30.598007 L 264.350006 28.753006 L 258.619995 29.044998 L 238.970001 42.645004 Z M 264.350006 30.597 L 260.410004 30.597 L 262.179993 34.919006 L 263.220001 34.919006 L 260.079987 42.031998 L 263.75 43.884003 L 269.339996 43.884003 L 272.480011 40.259995 L 267.269989 28.600006 L 264.350006 28.748001 Z M 433.75 62.996994 L 435.679993 62.996994 L 428.869995 56.018005 L 426.940002 55.962997 L 432.410004 62.727997 L 435.089996 67.720993 L 437.079987 67.720993 Z M 263.25 52.587006 L 260.839996 51.783997 L 260.850006 53.387009 L 263.910004 53.951004 Z M 407.350006 28.457001 L 405.5 25.944 L 394.059998 24.074005 L 390.839996 26.973007 L 381.579987 26.973007 L 377.720001 24.074005 L 356.779999 24.074005 L 355.48999 19.458008 L 336.160004 19.458008 L 319.119995 27.080002 L 322.850006 31.697998 L 319.630005 35.026001 L 316.720001 25.514999 L 311.579987 25.108002 L 314.049988 30.731003 L 294.179993 31.268005 L 275.609985 38.891006 L 273.160004 34.223007 L 280.220001 34.488998 L 283.660004 32.770996 L 270.130005 28.457001 L 267.25 28.604004 L 272.459991 40.264008 L 269.320007 43.888 L 268.559998 44.598007 L 269.049988 48.078995 L 269.480011 51.134995 L 273.100006 51.134995 L 275.890015 55.665009 L 274.279999 56.692001 L 276.959991 57.781998 L 287.929993 62.249008 L 286.399994 65.684998 L 287.119995 67.401993 L 285.350006 67.884995 L 285.660004 70.709 L 292.070007 72.953995 L 294.279999 72.475998 L 299.730011 74.947006 L 302.089996 75.531006 L 300.619995 72.953995 L 300.619995 67.725006 L 298.26001 64.772995 L 298.26001 58.960999 L 315.899994 58.960999 L 315.899994 54.462997 L 325.850006 52.220001 L 351.089996 61.121002 L 355.420013 63.651001 L 360.75 59.591003 L 367.890015 61.764999 L 369.820007 57.417007 L 387.380005 61.764999 L 395.970001 61.764999 L 399.190002 61.121002 L 397.470001 55.054001 L 404.98999 55.054001 L 412.720001 62.625 L 423.23999 65.309006 L 423.23999 73.791992 L 427.850006 72.981995 L 430.329987 69.281998 L 430.329987 62.410004 L 423.23999 54.356995 L 416.369995 54.25 L 417.549988 45.768005 L 431.720001 45.875 L 433.26001 41.061005 L 439.23999 43.324005 L 439.26001 41.104996 L 440.73999 41.257996 L 443.320007 43.727005 L 440.829987 45.421997 L 440.529999 50.490997 L 450.619995 60.048004 L 450.619995 50.813995 L 444.929993 45.337006 L 458.410004 41.069 L 458.579987 39.693008 L 451.799988 37.848007 L 454.440002 35.791 L 460.5 37.042999 L 464.609985 37.124008 L 461.309998 33.583008 L 440.149994 29.391998 Z M 256.25 64.397003 L 253.759995 66.438004 L 257.380005 67.783005 L 261.23999 67.117004 L 264.299988 63.899002 L 263.089996 63.899002 L 263.089996 63.138 Z M 254.399994 62.647003 L 256.25 64.397003 L 263.089996 63.138 L 263.089996 62.078995 L 256.890015 61.326004 L 256.630005 61.223999 Z M 241.339996 67.623993 L 243.559998 67.783005 L 245.570007 67.319 L 244.850006 65.143997 L 242.960007 65.143997 L 241.729996 65.710999 Z M 249.839996 62.647003 L 254.399994 62.647003 L 256.630005 61.223999 L 252.270004 59.505997 L 248.369995 60.714005 Z M 219.199997 83.606995 L 220.100006 83.675003 L 221.139999 74.938995 L 217.759995 74.373993 L 217.589996 80.761993 Z M 272.089996 68.326996 L 273.779999 65.677994 L 272.839996 63.895996 L 269.950012 63.895996 Z M 263.899994 53.947006 L 260.839996 53.382996 L 257.619995 53.488998 L 256.890015 52.820007 L 252.270004 53.947006 L 251.860001 53.942001 L 252.270004 59.503006 L 256.640015 61.221008 L 256.890015 61.322998 L 263.089996 62.076004 L 265.670013 58.858994 L 265.220001 57.606995 L 264.420013 55.402008 Z M 264.299988 63.895996 L 261.23999 67.113998 L 263.980011 71.664001 L 270.820007 70.884995 L 272.769989 71.421997 L 273.570007 68.945999 L 272.089996 68.326996 L 269.950012 63.895996 Z M 251.850006 53.942001 L 245.919998 53.874008 L 245.649994 52.820007 L 243.570007 52.820007 L 243.990005 53.835007 L 240.869995 55.703995 L 240.589996 61.089005 L 242.479996 62.076004 L 241.729996 65.707993 L 242.960007 65.141006 L 247.360001 65.141006 L 247.740005 65.029999 L 250.929993 64.093994 L 249.839996 62.643997 L 248.369995 60.710999 L 252.270004 59.503006 Z M 243.570007 52.820007 L 245.649994 52.820007 L 245.539993 52.374008 L 246.220001 48.552002 L 244.350006 48.526001 L 243.020004 51.524002 Z M 249.119995 51.481995 L 247.949997 50.322998 L 246.910004 50.75 L 246.589996 52.393005 L 248.529999 52.374008 Z M 250.929993 64.091995 L 247.360001 65.138992 L 244.850006 65.138992 L 245.570007 67.313995 L 249.380005 66.432999 L 253.759995 66.432999 L 255.589996 64.929001 L 256.25 64.391998 L 254.399994 62.641998 L 249.839996 62.641998 Z M 253.110001 81.481995 L 249.240005 81.481995 L 249.240005 82.449005 L 250.690002 83.442001 L 253.110001 83.817001 Z M 242.960007 76.033005 L 242.960007 80.005997 L 244.809998 80.005997 L 244.809998 76.569992 Z M 241.339996 67.615005 L 240.990005 69.322006 L 243.229996 70.343002 L 245.830002 70.343002 L 253.830002 78.326004 L 254.240005 81.722992 L 255.710007 80.863998 L 256.170013 78.421997 L 257.98999 78.057007 L 248.229996 69.610001 L 251 69.444 L 249.380005 66.429001 L 243.559998 67.774002 Z M 243.889999 73.296005 L 243.889999 74.934006 L 244.809998 75.281006 L 245.220001 73.296005 Z M 225.429993 63.255997 L 225.429993 64.436996 L 228.75 66.231003 L 229.190002 72.113998 L 234.110001 75.261002 L 235.630005 73.296005 L 242.830002 73.347992 L 243.039993 70.343002 L 243.229996 70.343002 L 240.990005 69.322006 L 242.479996 62.070007 L 235.929993 58.653 L 228.25 63.255997 Z M 237.759995 57.559998 L 235.929993 58.653 L 239.600006 60.567001 L 240.649994 60.001007 L 240.690002 59.115005 Z M 240.690002 59.115005 L 240.869995 55.697998 L 237.759995 57.559998 Z M 239.600006 60.567001 L 240.589996 61.083008 L 240.639999 60.001007 Z M 227.580002 52.197006 L 227.619995 54.666 L 225.929993 55.591995 L 227.419998 57.761002 L 224.399994 60.625 L 228.389999 59.899994 L 232.449997 59.255997 L 232.710007 57.766006 L 233.539993 57.766006 L 233.720001 56.102997 L 231.089996 55.548004 L 227.800003 47.988007 L 225.289993 47.910995 L 225.289993 51.981995 Z M 224.399994 53.981003 L 224.399994 52.367996 L 221.460007 52.169006 L 223.149994 54.423996 Z M 218.479996 54.354004 L 218.479996 58.757004 L 220.169998 58.746002 L 220.169998 57.242996 L 223.389999 57.686005 L 223.149994 54.423996 L 221.460007 52.169006 Z M 220.100006 83.673996 L 227.149994 84.201004 L 234.110001 75.264999 L 229.190002 72.117996 L 217.809998 72.199997 L 217.759995 74.373001 L 221.139999 74.938004 Z M 235.720001 79.914001 L 235.720001 78.022995 L 233.539993 79.914001 Z M 261.480011 77.714996 L 265.950012 76.268997 L 264.920013 73.867004 L 261.23999 74.587006 Z M 258.649994 67.554993 L 259.470001 72.115005 L 261.23999 74.584 L 264.920013 73.863998 L 263.980011 71.658997 L 261.23999 67.108994 Z M 251 69.444992 L 251.410004 69.421005 L 253.509995 68.322006 L 254.460007 66.692001 L 253.759995 66.429993 L 249.380005 66.429993 Z M 273.320007 78.289001 L 269.98999 78.261993 L 272.730011 83.768005 L 285.320007 84.462997 L 297.690002 81.940002 L 297.690002 80.007004 L 296.309998 77.041 L 292.040009 75.953995 L 274.799988 76.518005 Z M 269.980011 77.041 L 273.049988 77.041 L 271.809998 74.371002 L 269.950012 74.972 Z M 256.230011 73.470993 L 257.339996 73.746002 L 259.470001 72.115005 L 258.869995 68.761002 L 254.320007 69.376999 Z M 259.820007 78.248001 L 261.23999 79.888 L 263.980011 80.653992 L 262.309998 81.362 L 264.519989 84.139999 L 265.910004 81.940002 L 264.359985 78.557007 L 267.440002 77.041 L 269.980011 77.041 L 269.950012 74.972 Z M 257.380005 67.778 L 254.460007 66.694992 L 253.509995 68.324997 L 251.410004 69.423996 L 252.139999 69.380005 L 255.529999 73.300003 L 256.230011 73.473999 L 254.320007 69.380005 L 258.869995 68.763992 L 258.649994 67.557999 Z M 258.670013 74.078003 L 260.269989 73.227005 L 259.470001 72.117996 L 257.339996 73.748993 Z L 259.570007 77.959 L 259.820007 78.250992 L 261.480011 77.714996 L 261.23999 74.587006 L 260.269989 73.227005 Z M 265.950012 76.268997 L 271.809998 74.373993 L 272.769989 71.419998 L 270.820007 70.882996 L 263.980011 71.662003 Z M 309.679993 104.408997 L 311.040009 105.309006 L 311.929993 104.388992 L 310.369995 102.188995 Z M 282.549988 85.878998 L 278.959991 87.207993 L 281.529999 87.852005 Z M 284.859985 90.472 L 284.859985 96.925003 L 286.209991 97.085999 L 288.220001 96.145996 L 288.839996 92.522003 L 290.410004 91.858002 L 290.48999 91.824005 L 290.029999 89.899002 L 286.799988 91.824005 Z M 309.23999 104.121994 L 305.690002 98.322006 L 304.140015 98.322006 L 303.029999 96.882996 L 300 96.873001 L 290.410004 91.860001 L 288.829987 92.524002 L 288.220001 96.147995 L 286.200012 97.087997 L 284.859985 96.927002 L 297.369995 118.666992 L 297.619995 119.477005 L 298.920013 117.246994 L 303.359985 117.807007 L 302.950012 119.496994 L 309.23999 116.197006 L 318.089996 113.826996 L 318.089996 109.216995 L 313.480011 108.567001 L 312.079987 105.996994 Z M 301.630005 96.878006 L 303.040009 96.882996 L 304.140015 98.322006 L 305.690002 98.322006 L 303.809998 95.261993 L 302.040009 95.261993 Z M 292.649994 88.337006 L 290.029999 89.901001 L 290.51001 91.912003 L 300 96.873001 L 301.630005 96.878006 L 302.040009 95.261993 L 305.529999 95.240997 L 297.690002 81.951004 L 294.089996 82.686005 Z M 315.440002 106.656998 L 312.079987 105.996994 L 313.480011 108.567001 L 316.079987 108.936996 L 319.779999 105.177002 L 318.089996 103.677002 Z M 316.079987 108.936996 L 318.089996 109.216995 L 318.089996 113.826996 L 313.640015 115.016998 L 313.640015 117.697006 L 316.119995 119.376999 L 324.320007 109.216995 L 319.779999 105.177002 L 316.079987 108.936996 Z M 286.320007 87.766998 L 284.859985 90.468002 L 286.799988 91.819992 L 292.649994 88.330994 L 294.089996 82.677994 L 285.320007 84.466003 L 284.730011 87.216003 Z M 309.23999 116.197006 L 302.950012 119.496994 L 303.359985 117.807007 L 298.920013 117.246994 L 297.619995 119.477005 L 299.839996 126.716995 L 316.119995 119.376999 L 313.640015 117.697006 L 313.640015 115.016998 Z M 284.859985 90.466995 L 286.320007 87.766006 L 284.730011 87.214996 L 284.149994 89.962997 Z M 284.820007 97.014999 L 284.859985 96.919998 L 284.859985 90.466995 L 284.149994 89.962997 L 283.029999 94.097992 Z M 298.200012 189.154999 L 299.899994 193.175003 L 303.970001 193.354996 L 310.899994 171.125 L 308.429993 171.125 L 300.380005 179.485001 L 299.570007 185.285004 Z M 253.460007 134.555008 L 252.279999 131.065002 L 254.639999 131.065002 L 251.729996 124.884995 L 251.729996 128.305008 L 247.550003 136.964996 L 243.899994 137.175003 L 243.389999 140.735001 L 244.970001 140.735001 L 244.889999 144.375 L 254.960007 144.375 L 255.410004 143.085007 L 255.389999 143.085007 L 252.380005 138.845001 Z M 247.660004 147.025009 L 244.830002 147.025009 L 244.740005 151.354996 L 248.369995 156.205002 L 248.369995 152.055008 L 253.029999 152.055008 L 250.649994 144.375 L 247.660004 144.375 Z L 247.660004 144.375 L 244.899994 144.375 L 244.830002 147.025009 Z M 238.210007 137.88501 L 238.850006 140.735001 L 243.389999 140.735001 L 243.899994 137.175003 L 247.550003 136.964996 L 251.729996 128.305008 L 251.729996 124.884995 L 236.080002 124.884995 L 233.539993 137.205002 Z M 215.119995 135.525009 L 216.270004 136.815002 L 216.270004 142.184998 L 224.789993 139.725006 L 224.789993 131.845001 L 216.470001 130.205002 L 216.470001 134.345001 Z M 216.270004 142.184998 L 216.270004 136.815002 L 213.190002 133.345001 L 210.460007 135.915009 Z M 267.559998 167.24501 L 264.619995 165.794998 L 264.619995 160.434998 L 261.299988 160.434998 L 260.630005 162.794998 L 257.320007 162.904999 L 256.459991 159.934998 L 251.199997 159.975006 L 251.199997 171.705002 L 248.199997 176.645004 L 248.460007 179.865005 L 267.01001 179.865005 L 263.980011 176.104996 L 263.980011 171.915009 L 267.679993 171.915009 Z M 230.570007 138.055008 L 229.190002 129.615005 L 224.789993 129.615005 L 224.789993 139.725006 Z M 250.649994 144.375 L 253.029999 152.055008 L 248.369995 152.055008 L 248.369995 156.205002 L 250.199997 158.645004 L 254.639999 156.615005 L 259.309998 148.865005 L 260.049988 143.085007 L 255.410004 143.085007 L 254.960007 144.375 Z M 294.049988 123.085007 L 296.799988 127.434998 L 297.850006 126.554993 L 290.880005 114.585007 L 287.279999 123.085007 Z M 210.470001 135.915009 L 213.190002 133.345001 L 210.399994 130.205002 L 207.690002 132.925003 Z M 297.529999 130.275009 L 299.279999 129.014999 L 297.850006 126.554993 L 295.76001 128.305008 Z M 284.589996 169.335007 L 284.589996 171.915009 L 286.850006 173.425003 L 286.850006 176.645004 L 284.700012 178.525009 L 284.700012 174.755005 L 282.549988 172.99501 L 282.48999 173.035004 L 278.429993 175.865005 L 282.48999 178.525009 L 282.48999 182.24501 L 279.950012 188.184998 L 279.950012 194.764999 L 281.790009 194.735001 L 281.910004 193.845001 L 285.720001 191.184998 L 285.440002 183.175003 L 294.380005 175.845001 L 293.48999 167.485001 Z M 299.279999 129.014999 L 297.529999 130.275009 L 299.309998 132.275009 L 306.399994 134.785004 L 295.329987 144.005005 L 295.329987 152.025009 L 312.679993 131.845001 L 311.970001 128.305008 L 299.910004 130.095001 Z M 255.070007 198.49501 L 261.730011 198.49501 L 261.730011 181.464996 L 270.570007 181.464996 L 269.420013 179.865005 L 248.460007 179.865005 Z M 288.049988 140.205002 L 285.01001 140.63501 L 285.880005 144.375 L 285.450012 147.544998 L 284.089996 149.945007 L 292.410004 155.434998 L 295.329987 152.025009 L 295.329987 144.005005 L 298.549988 141.315002 L 289.109985 141.315002 Z M 284.089996 149.945007 L 283.570007 150.854996 L 280.579987 150.854996 L 281.350006 149.535004 L 279.98999 149.535004 L 276.929993 157.115005 L 282.48999 164.945007 L 284.589996 164.945007 L 284.589996 169.335007 L 293.48999 167.485001 L 292.410004 155.434998 Z M 215.979996 102.444992 L 211.039993 102.444992 L 211.039993 108.115005 L 209.220001 110.875 L 203.119995 110.875 L 202.899994 117.244995 L 210.399994 122.634995 L 210.399994 120.705002 L 219.419998 120.705002 L 218.559998 105.324997 L 223.309998 105.324997 L 215.979996 99.914993 Z M 278.75 152.615005 L 279.98999 149.535004 L 277.350006 149.535004 L 276.51001 153.085007 Z M 276.929993 157.115005 L 278.75 152.615005 L 276.51001 153.085007 L 275.899994 155.654999 Z M 204.800003 129.805008 L 207.690002 132.925003 L 210.399994 130.205002 L 213.190002 133.345001 L 215.119995 135.525009 L 216.470001 134.345001 L 216.470001 130.205002 L 215.820007 127.255005 L 207.229996 127.255005 Z M 219.419998 120.705002 L 210.399994 120.705002 L 210.399994 122.634995 L 212.440002 127.255005 L 215.820007 127.255005 L 216.470001 130.205002 L 220.630005 131.025009 L 220.630005 126.854996 L 236.600006 120.384995 L 236.600006 115.115005 L 223.309998 105.324997 L 218.559998 105.324997 Z M 274.929993 168.375 L 278.149994 169.665009 L 277.029999 171.915009 L 267.559998 167.24501 L 267.679993 171.915009 L 263.980011 171.915009 L 263.980011 176.104996 L 267.01001 179.865005 L 272.679993 179.865005 L 282.48999 173.035004 L 282.48999 164.945007 L 281.26001 163.214996 L 275.899994 164.025009 Z M 261.730011 192.425003 L 264.410004 195.514999 L 275.350006 188.184998 L 270.570007 181.464996 L 261.730011 181.464996 Z M 220.630005 131.025009 L 224.789993 131.845001 L 224.789993 129.615005 L 229.190002 129.615005 L 234.300003 127.735001 L 229.419998 123.294998 L 220.630005 126.854996 Z M 282.48999 164.945007 L 282.48999 173.035004 L 282.549988 172.99501 L 284.700012 174.755005 L 284.700012 178.525009 L 286.850006 176.645004 L 286.850006 173.425003 L 284.589996 171.915009 L 284.589996 164.945007 Z M 296.799988 127.434998 L 294.049988 123.085007 L 287.279999 123.085007 L 282.48999 134.395004 L 289.109985 141.315002 L 298.549988 141.315002 L 306.399994 134.785004 L 299.309998 132.275009 L 295.76001 128.305008 Z M 277.350006 149.535004 L 281.350006 149.535004 L 282.48999 147.544998 L 285.450012 147.544998 L 285.880005 144.375 L 285.01001 140.63501 L 279.279999 141.434998 Z M 236.600006 115.115005 L 236.600006 120.384995 L 229.419998 123.294998 L 234.309998 127.735001 L 235.589996 127.264999 L 236.080002 124.884995 L 251.729996 124.884995 L 255.259995 117.645004 L 253.869995 108.115005 L 246.910004 108.115005 Z M 203.130005 110.875 L 209.220001 110.875 L 211.050003 108.115005 L 211.050003 102.444992 L 215.990005 102.444992 L 215.990005 99.005997 L 210.550003 99.005997 L 203.210007 108.565002 Z M 202.679993 123.444992 L 207.610001 124.884995 L 202.630005 124.884995 L 202.539993 127.255005 L 212.440002 127.255005 L 210.399994 122.634995 L 202.899994 117.244995 Z M 207.610001 124.884995 L 202.679993 123.444992 L 202.630005 124.884995 Z M 255.25 117.645004 L 251.729996 124.884995 L 254.639999 131.065002 L 252.279999 131.065002 L 253.460007 134.555008 L 265.140015 129.035004 L 265.140015 123.024994 L 267.73999 120.464996 L 268 114.625 L 257.859985 108.115005 L 253.869995 108.115005 Z M 255.279999 93.964996 L 253.149994 91.382996 L 248.580002 90.285995 L 244.330002 94.856995 L 247.089996 108.117004 L 257.859985 108.117004 L 268 114.626999 L 268.98999 92.186996 L 263.089996 91.386993 L 260.649994 95.037994 Z M 215.130005 99.003006 L 215.990005 99.003006 L 215.990005 98.272003 L 228.229996 91.591003 L 228.229996 86.796997 L 219.210007 87.737 L 210.550003 99.007004 Z M 228.229996 86.802994 L 228.229996 91.597 L 215.990005 98.278 L 215.990005 99.917999 L 236.600006 115.117996 L 246.910004 108.117996 L 247.089996 108.117996 L 242.059998 83.947998 L 236.139999 83.776993 Z M 242.059998 83.944 L 244.330002 94.863998 L 248.580002 90.292999 L 246.910004 89.893005 L 247.119995 84.093002 Z M 269.420013 179.863998 L 275.350006 188.184006 L 279.950012 188.184006 L 282.48999 182.244003 L 282.48999 178.524002 L 278.429993 175.863998 L 272.679993 179.863998 Z M 272.140015 202.524002 L 274.5 202.524002 L 275.899994 201.064011 L 275.899994 199.194 L 273.970001 199.194 L 272.140015 200.374008 Z M 279.950012 194.154007 L 278.149994 194.154007 L 278.149994 195.804001 L 279.950012 196.884003 Z M 284.790009 97.093994 L 284.820007 97.009995 L 283.029999 94.093002 L 268.98999 92.184998 L 268.23999 109.205002 L 283.630005 109.205002 L 286.730011 107.434998 L 280.350006 96.475006 L 283.839996 99.319992 Z M 286.730011 107.444 L 283.630005 109.214005 L 268.230011 109.214005 L 267.73999 120.464005 L 265.140015 123.024002 L 265.140015 129.033997 L 274.350006 139.634003 L 279.279999 141.434006 L 288.040009 140.20401 L 282.48999 134.393997 L 287.279999 123.084 L 290.880005 114.584 Z M 275.899994 155.654007 L 279.279999 141.434006 L 274.350006 139.634003 L 260.440002 140.024002 L 259.309998 148.863998 L 254.639999 156.613998 L 250.199997 158.643997 L 251.199997 159.973999 L 256.459991 159.934006 L 257.320007 162.904007 L 260.630005 162.794006 L 261.299988 160.434006 L 264.619995 160.434006 L 264.619995 165.794006 L 277.029999 171.914001 L 278.149994 169.664001 L 274.929993 168.374008 L 275.899994 164.024002 L 281.26001 163.214005 Z M 252.380005 138.844009 L 255.389999 143.084 L 260.049988 143.084 L 260.440002 140.024002 L 274.350006 139.634003 L 265.140015 129.033997 L 253.460007 134.554001 Z M 235.589996 127.263992 L 231.229996 128.863998 L 232.660004 137.45401 L 233.539993 137.20401 Z M 231.229996 128.863998 L 229.190002 129.613998 L 230.570007 138.054001 L 232.660004 137.45401 Z M 204.800003 129.804001 L 207.229996 127.253998 L 202.550003 127.253998 L 202.539993 127.363998 Z M 68.5 29.503998 L 64.849998 28 L 45.740002 28.108002 L 38.009998 31.222 L 38.009998 34.658005 L 29.313999 34.550995 L 27.664 36.854004 L 35.002998 36.589996 L 25.555 40.134003 L 20.99 46.319 L 24.910999 46.253998 L 17.393999 51.193008 L 20.142 51.408005 L 34.532001 44.537003 L 51.141998 43.957001 L 56.188 49.003998 L 58.094002 46.951996 L 56.429001 45.233002 L 54.550999 45.233002 L 52.716999 43.130997 L 68.507004 29.501007 Z M 56.009998 61.464005 L 53.379002 59.315994 L 52.250999 60.283005 L 54.084999 62.681 L 56.009998 62.681 Z M 156.809998 64.789001 L 154.839996 61.651001 L 153.059998 61.225998 L 153.059998 58.975006 L 147.330002 64.789001 Z M 153.809998 28.468994 L 142.270004 23.755997 L 140.550003 23.738007 L 136.539993 27.031998 L 137.880005 23.718002 L 135.940002 23.703003 L 131.270004 28.667999 L 142.619995 28.050995 L 149.550003 34.251999 L 144.889999 34.171997 L 142.539993 36.097 L 137.25 36.097 L 137.25 37.608994 L 142.619995 37.608994 L 147.169998 41.371994 L 148.410004 40.830002 L 147.330002 38.440002 L 150.460007 39.930008 L 151.479996 39.487 L 151.479996 34.815994 L 155.080002 36.097 L 157.149994 34.716003 L 155.979996 32.531006 L 153.899994 31.772995 Z M 114.949997 70.598999 L 118.279999 70.598999 L 120.589996 69.016998 L 128.050003 69.016998 L 131.270004 66.225006 L 134.169998 66.225006 L 133.119995 69.528992 L 138.270004 68.641006 L 134.889999 70.250992 L 135.210007 71.647995 L 144.389999 68.423004 L 139.910004 68.210007 L 137.820007 66.326996 L 139.889999 63.117004 L 138.880005 62.153 L 132.389999 65.097992 L 132.389999 63.406998 L 138.600006 60.427002 L 148.550003 59.998001 L 156.029999 56.016998 L 156.070007 54.199997 L 150.619995 53.255997 L 149.960007 44.346008 L 142.830002 47.152008 L 142.880005 42.960007 L 139.440002 40.033997 L 134.770004 40.033997 L 122.139999 58.414001 L 119.080002 58.423996 L 119.139999 52.378998 L 108.260002 46.473999 L 119.139999 38.421005 L 125.309998 37.294998 L 124.019997 35.387009 L 133.520004 34.339996 L 137.389999 30.313995 L 133.759995 29.912003 L 128.770004 33.212997 L 129.330002 30.395004 L 127 30.153 L 126.449997 26.748001 L 122.410004 28.542007 L 123.459999 30.716995 L 118.059998 33.292999 L 108.639999 31.522003 L 103.660004 33.856995 L 91.57 29.026001 L 68.459999 29.509003 L 52.669998 43.139008 L 54.504002 45.240997 L 56.382 45.240997 L 58.047001 46.960007 L 56.140999 49.012009 L 54.208 57.858002 L 57.671001 60.999008 L 57.671001 62.690002 L 96.490997 62.690002 L 101.051003 64.770996 L 108.771004 63.132004 L 109.740997 66.554993 L 111.301003 67.707001 L 113.920998 67.522003 Z M 128.880005 36.098999 L 125.919998 38.505997 L 131.770004 39.125 L 132.389999 37.611008 Z M 117.459999 29.975998 L 118.550003 31.382996 L 121.309998 29.975998 L 120.489998 28.669998 Z M 119.550003 25.25 L 121.309998 27.033997 L 125.089996 25.772003 L 126.080002 23.130005 Z M 126.760002 24.188004 L 127.239998 25.878998 L 132.389999 24.509995 L 131.350006 23.130005 Z M 139.889999 20.684998 L 137.070007 19.516998 L 134.330002 21.852005 L 145.440002 22.727005 L 148.339996 20.684998 Z M 166.940002 14.444 L 172.740005 11.171005 L 149.710007 12.878998 L 149.710007 14.121994 L 157.479996 13.960999 L 156.389999 15.410995 L 148.339996 15.570999 L 149.389999 17.423996 L 145.919998 16.860001 L 147.289993 18.630997 L 141.330002 18.630997 L 142.220001 19.516998 L 148.740005 19.516998 L 149.789993 20.403 L 159.289993 15.973999 Z M 138.759995 15.787994 L 143.050003 16.598999 L 145.509995 15.024002 L 143.729996 13.695007 Z M 93.449997 27.037994 L 103.529999 23.608994 L 101.209999 22.533997 L 91.68 24.960999 Z M 104.830002 24.235001 L 99.399002 26.082001 L 102.599998 27.429993 L 97.607002 28.701996 L 103.809998 31.117996 L 108.080002 29.264999 L 112.830002 30.393005 L 116.389999 29.576004 L 112.910004 27.968994 L 115.589996 24.509003 L 112.910004 24.509003 L 111.300003 26.591003 L 110.650002 24.509003 L 107.809998 25.611008 Z M 96.962997 109.065002 L 101.910004 109.065002 L 105.900002 111.725006 L 104.379997 113.414993 L 111.300003 113.414993 L 103.029999 107.455002 L 98.653999 107.455002 Z M 103.889999 116.475006 L 104.93 117.365005 L 107.910004 117.365005 L 107.910004 116.315002 L 106.870003 115.264999 L 103.889999 115.264999 Z M 122.239998 115.654999 L 121.629997 116.664993 L 123.300003 116.664993 L 123.910004 115.654999 Z M 85.449997 119.975006 L 82.632004 119.975006 L 81.293999 122.354996 L 85.283997 124.365005 L 87.987 119.485001 L 87.462997 116.884995 L 85.047997 116.884995 Z M 88.591003 123.925003 L 88.106003 125.634995 L 88.832001 125.964996 L 95.497002 120.384995 L 87.464996 120.464996 L 86.139999 122.835007 Z M 88.106003 125.634995 L 88.591003 123.925003 L 86.139999 122.835007 L 85.283997 124.365005 Z M 90.603996 114.544998 L 87.462997 116.884995 L 87.987 119.485001 Z M 91.367996 129.38501 L 95.712997 129.845001 L 95.497002 120.384995 L 88.832001 125.964996 Z M 98.367996 155.725006 L 101.922997 157.425003 L 108.263 149.645004 L 101.803001 145.955002 L 98.737999 149.815002 Z M 111.428001 128.184998 L 109.708 128.175003 L 106.117996 133.025009 L 104.288002 133.145004 L 104.807999 134.904999 L 103.848 136.264999 L 104.587997 138.725006 L 103.888 143.315002 L 101.797997 145.955002 L 116.557999 154.38501 L 116.557999 144.925003 L 119.987999 144.695007 L 119.987999 137.184998 L 114.358002 136.604996 L 111.907997 133.895004 Z M 134.867996 242.985001 L 137.067993 245.005005 L 143.848007 245.255005 L 136.528 241.434998 Z M 145.287994 194.235001 L 142.328003 196.035004 L 138.348007 196.035004 L 138.348007 192.49501 L 130.218002 186.99501 L 129.757996 187.835007 L 122.977997 187.835007 L 121.157997 204.735001 L 124.987999 221.485001 L 128.447998 227.645004 L 128.608002 232.264999 L 133.748001 240.13501 L 135.617996 240.324997 L 134.647995 220.195007 L 145.548004 215.475006 L 140.608002 208.595001 L 140.608002 201.025009 L 145.417999 196.085007 Z M 146.488007 210.755005 L 148.848007 206.665009 L 140.608002 201.025009 L 140.608002 208.595001 Z M 123.538002 130.865005 L 119.888 128.264999 L 111.428001 128.184998 L 111.907997 133.895004 L 114.358002 136.604996 L 119.987999 137.184998 L 119.987999 144.695007 L 120.888 144.63501 L 122.028 147.184998 L 125.688004 146.005005 L 125.388 142.044998 L 130.287994 140.24501 L 131.738007 133.085007 L 130.087997 131.505005 Z M 91.358002 129.38501 L 94.250999 133.294998 L 95.294998 133.665009 L 96.761002 131.764999 L 95.734001 131.195007 L 95.703003 129.845001 Z M 136.837997 137.945007 L 131.727997 133.085007 L 130.278 140.24501 L 132.408005 139.464996 L 132.117996 145.574997 L 137.007996 145.025009 L 135.337997 140.74501 Z M 124.197998 167.434998 L 119.208 168.845001 L 119.208 180.255005 L 122.968002 187.835007 L 129.748001 187.835007 L 132.388 182.99501 L 137.498001 182.964996 L 137.378006 179.145004 L 128.677994 172.035004 Z M 141.397995 144.544998 L 144.677994 144.175003 L 145.647995 141.425003 L 144.358002 138.595001 L 141.617996 138.365005 Z M 137.498001 182.964996 L 132.388 182.99501 L 130.207993 186.99501 L 138.337997 192.49501 L 138.337997 196.035004 L 142.317993 196.035004 L 145.278 194.235001 L 145.078003 191.434998 L 137.638 187.464996 Z M 137.007996 145.025009 L 141.397995 144.544998 L 141.617996 138.365005 L 136.837997 137.945007 L 135.337997 140.74501 Z M 157.557999 151.154999 L 153.837997 149.544998 L 150.117996 151.725006 L 151.328003 148.464996 L 148.858002 147.395004 L 145.348007 150.095001 L 147.897995 146.335007 L 145.647995 141.425003 L 144.677994 144.175003 L 132.117996 145.574997 L 132.408005 139.464996 L 130.278 140.24501 L 125.377998 142.044998 L 125.678001 146.005005 L 122.017998 147.184998 L 120.877998 144.63501 L 116.547997 144.925003 L 116.547997 156.095001 L 112.148003 156.63501 L 110.208 162.964996 L 117.568001 169.305008 L 124.197998 167.434998 L 128.677994 172.035004 L 137.378006 179.145004 L 137.638 187.464996 L 145.078003 191.434998 L 145.408005 196.085007 L 140.598007 201.025009 L 148.837997 206.665009 L 153.638 198.294998 L 154.768005 191.044998 L 166.427994 185.88501 L 168.598007 169.764999 L 173.628006 163.184998 L 173.628006 159.205002 L 165.397995 153.845001 L 157.348007 153.354996 Z M 99.938004 131.625 L 98.571999 132.764999 L 96.760002 131.764999 L 95.293999 133.665009 L 99.607002 135.205002 L 100.652 133.645004 L 103.122002 133.88501 L 103.842003 136.264999 L 104.802002 134.904999 L 104.351997 133.255005 L 103.811996 131.285004 Z M 112.148003 156.63501 L 116.547997 156.095001 L 116.547997 154.38501 L 108.248001 149.645004 L 101.907997 157.425003 L 98.352997 155.725006 L 98.238998 157.544998 L 109.039001 175.934998 L 118.369003 182.184998 L 119.209 180.255005 L 119.209 168.845001 L 117.569 169.305008 L 110.209 162.964996 Z M 124.977997 221.485001 L 121.148003 204.735001 L 122.968002 187.835007 L 119.208 180.255005 L 118.367996 182.184998 L 119.938004 220.434998 L 124.068001 223.775009 L 124.258003 230.63501 L 131.417999 239.895004 L 133.738007 240.13501 L 128.598007 232.264999 L 128.438004 227.645004 Z M 119.977997 114.285004 L 115.108002 113.744995 L 115.108002 116.434998 L 116.737999 115.225006 L 119.337997 115.225006 Z M 115.108002 115.774994 L 115.108002 113.744995 L 112.068001 113.744995 L 113.057999 115.145004 L 111.288002 115.145004 L 111.288002 115.774994 Z M 434.808014 133.104996"/>
                <path id="path1" fill="#bcbec0" stroke="#000000" stroke-width="1.5" stroke-linejoin="bevel" d="M 481.399994 219.300003 L 480.399994 222.5 L 487.700012 217.300003 L 485.600006 214.5 L 485.600006 211.300003 L 484.399994 211.800003 L 484.399994 216.300003 Z M 462.200012 229.800003 L 477.399994 222.100006 L 477.399994 224.100006 L 465.700012 231.800003 Z M 399.899994 190.300003 L 412.700012 184.300003 L 422.200012 173.800003 L 427.399994 176.100006 L 429.700012 171.300003 L 438.399994 171.100006 L 436.200012 175.100006 L 443.399994 181.300003 L 448.200012 176.5 L 448.200012 169.800003 L 450.399994 170.5 L 452.899994 182.5 L 460.700012 193.5 L 459.899994 201.800003 L 445.700012 216.5 L 433.399994 215.800003 L 431.899994 207.5 L 427.700012 209.300003 L 423.700012 205.800003 L 399.399994 211.100006 L 397.899994 209.300003 L 399.899994 204.5 Z"/>
            </g>
        </g>
        <g id="a">
            <path id="path13056" fill="#bcbec0" stroke="#000000" stroke-width="0.25" stroke-linejoin="bevel" d="M 275.899994 201.100006 L 274.5 202.559998 L 272.140015 202.559998 L 272.140015 200.410004 L 273.970001 199.229996 L 275.899994 199.229996 L 275.899994 201.100006 Z M 279.950012 194.800003 L 279.950012 196.919998 L 278.149994 195.839996 L 278.149994 194.190002 L 279.950012 194.190002 L 279.950012 188.220001 L 275.350006 188.220001 L 264.410004 195.550003 L 261.720001 192.460007 L 261.720001 198.529999 L 255.070007 198.529999 L 258.929993 209.100006 L 271.600006 209.100006 L 281.350006 197.820007 L 281.790009 194.770004 L 279.950012 194.800003 Z M 108.349998 75.399994 L 110.870003 73.681 L 113.910004 73.681 L 111.400002 75.399994 L 108.349998 75.399994 Z M 131.320007 66.272995 L 128.100006 69.065002 L 120.639999 69.065002 L 118.330002 70.647003 L 120.110001 70.647003 L 117.629997 72.339005 L 115.860001 72.339005 L 118.330002 70.647003 L 113.459999 70.647003 L 111.349998 72.287003 L 109.199997 72.501999 L 109.629997 68.796997 L 107.970001 68.796997 L 106.029999 70.085999 L 102.43 75.401001 L 100.309998 75.401001 L 104.389999 68.796997 L 109.199997 67.768005 L 108.93 66.865005 L 105.760002 66.757004 L 104.260002 65.843994 L 102.379997 66.757004 L 100.18 66.757004 L 101.080002 64.811996 L 96.528999 62.729996 L 57.719002 62.729996 L 44.938999 76.210007 L 44.938999 86.569992 L 49.605 91.237 L 65.925003 93.335007 L 68.101997 96.636993 L 72.692001 96.475998 L 76.480003 103.916 L 83.538002 95.054993 L 100.318001 95.108002 L 101.428001 103.496002 L 104.087997 103.565994 L 104.157997 93.125992 L 131.317993 69.906006 L 133.167999 69.585999 L 134.218002 66.278992 L 131.317993 66.278992 Z M 147.380005 64.837997 L 156.860001 64.837997 L 154.889999 61.699997 L 153.110001 61.274994 L 153.110001 59.024002 Z M 77.099998 115.597992 L 73.443001 107.718002 L 76.478996 103.908005 L 72.692001 96.466003 L 68.101997 96.626999 L 65.925003 93.326004 L 49.605 91.227997 L 49.636002 91.259995 L 50.331001 98.608002 L 55.351002 108.108002 L 57.408001 106.518005 L 53.449001 98.076996 L 53.449001 93.326004 L 55.784 93.326004 L 55.875 97.744995 L 63.375 115.365005 L 75.605003 120.464996 L 78.656998 119.654999 L 81.343002 122.395004 L 82.681 120.014999 L 85.499001 120.014999 L 85.097 116.925003 L 87.512001 116.925003 L 90.653 114.585007 L 90.786003 111.175003 L 87.350998 111.115005 L 84.620003 115.595001 Z M 212.5 39.208008 L 217.039993 36.999008 L 217.039993 36.376999 L 214.789993 34.095001 L 211.639999 35.141006 L 207.860001 35.061005 L 207.059998 36.151001 L 204.910004 36.100998 L 204.910004 38.121002 Z M 252.910004 87.158005 L 252.919998 85.013992 L 250.490005 84.949997 L 250.470001 86.529999 Z M 160.830002 18.598007 L 160.830002 20.858002 L 172.110001 21.018997 L 175 26.005997 L 175 30.516006 L 169.589996 33.589005 L 169.75 39.709 L 173.149994 43.145996 L 177.169998 43.145996 L 183.309998 36.656998 L 191.979996 34.100006 L 195.229996 31.611008 L 201.789993 31.205994 L 206.380005 29.850998 L 215.029999 16.100998 L 220.360001 15.011002 L 222.240005 13.121002 L 206.869995 11.574997 L 193.589996 13.121002 L 177.509995 13.121002 L 168.240005 16.341995 Z M 422.429993 105.647995 L 421.119995 104.278 L 418.970001 107.337997 L 421.119995 109.347992 Z M 401.790009 67.718002 L 402.220001 65.302002 L 397.709991 64.576996 L 395.98999 61.757996 L 387.399994 61.757996 L 369.839996 57.410004 L 367.910004 61.757996 L 360.769989 59.584 L 355.440002 63.643997 L 372.799988 73.783997 L 392.880005 73.998993 L 395.299988 69.074997 Z M 405.600006 113.697998 L 403.019989 114.268005 L 403.019989 115.787994 L 404.070007 117.057999 L 405.600006 115.147995 Z M 395.98999 61.757996 L 397.709991 64.576996 L 402.220001 65.302002 L 401.790009 67.718002 L 395.309998 69.074997 L 392.880005 73.998993 L 372.799988 73.783997 L 355.440002 63.643997 L 347.929993 69.369003 L 349.179993 75.179993 L 341.660004 77.972992 L 343.809998 83.233002 L 351.809998 86.882996 L 352.130005 93.326004 L 373.070007 100.567993 L 376.929993 97.029999 L 385.149994 100.567993 L 384.019989 103.628006 L 388.369995 110.878006 L 395.98999 107.018005 L 400.970001 111.278 L 403.079987 110.078003 L 403.160004 112.128006 L 415.640015 107.667999 L 419.720001 98.535995 L 412.440002 86.556 L 416.179993 82.477005 L 411.880005 82.477005 L 410.5 83.369995 L 407.799988 78.934998 L 411.23999 75.927994 L 413.600006 80.432007 L 416.910004 78.154999 L 423.26001 73.781006 L 423.26001 65.298004 L 412.73999 62.613998 L 405.01001 55.042999 L 397.5 55.042999 L 399.209991 61.110001 Z M 439.380005 74.518005 L 442.320007 74.477997 L 443.570007 72.343994 L 437.040009 69.606003 L 437.170013 75.000992 L 438.459991 75.766006 Z M 431.26001 86.988007 L 430.779999 88.647003 L 437.25 87.692001 L 437.75 90.190002 L 439.220001 89.565994 L 439.380005 87.600006 L 443.720001 86.485001 L 443.48999 80.811996 L 441.519989 77.373001 L 439.559998 76.804993 L 440.679993 81.959 L 436.670013 85.595993 Z M 430.119995 90.190002 L 432.459991 89.895004 L 433.220001 91.022995 L 432.380005 93.679993 Z M 436.359985 89.089996 L 435.230011 91.143005 L 433.73999 89.451996 Z M 429.279999 124.130005 L 425.730011 123.759995 L 424.440002 122.149994 L 425.730011 119.190002 L 424.450012 116.350006 L 422.109985 116.300003 L 421.540009 121.300003 L 424.850006 125.289993 L 428.730011 125.779999 Z M 418.100006 133 L 419.670013 133.309998 L 422.459991 130.990005 L 422.399994 129.089996 Z M 430.350006 136.589996 L 430.350006 138.820007 L 432.679993 138.12001 L 431.890015 136.680008 L 433.769989 136.199997 L 432.170013 131.210007 L 430.98999 134.290009 L 427.130005 134.290009 Z M 423.480011 125.460007 L 425.140015 127.089996 L 424.600006 128.089996 L 423.26001 126.779999 Z M 425.140015 129.449997 L 426.320007 130.25 L 427.609985 128.300003 L 425.890015 128.089996 Z M 429.540009 127.410004 L 431.160004 129.5 L 432.929993 129.5 L 431.23999 126.779999 Z M 429.540009 129.169998 L 430.450012 130.76001 L 429.720001 131.729996 L 428.440002 129.800003 Z M 427.609985 130.779999 L 428.440002 132.029999 L 427.609985 133.029999 L 426.660004 131.87001 Z M 430.76001 163.540009 L 431.850006 165.040009 L 434.910004 164.669998 L 434.910004 163.540009 Z M 406.170013 145.900009 L 406.320007 150.220001 L 408.779999 154.520004 L 416.600006 154.520004 L 420.470001 149.580002 L 420.470001 140.62001 L 417.679993 140.910004 L 415.420013 145.180008 L 407.850006 146.87001 L 406.220001 145.880005 Z M 400.609985 157.180008 L 400.609985 153.880005 L 387.720001 140.51001 L 383.309998 138.820007 L 398.23999 159.150009 Z M 415.670013 163.059998 L 415.910004 164.180008 L 399.799988 161.449997 L 402.220001 159.51001 L 406.23999 161.040009 L 409.869995 160.240005 Z M 425.970001 163.059998 L 423.480011 163.059998 L 423.959991 164.669998 L 426.339996 164.669998 L 427.339996 163.860001 Z M 421.619995 165.669998 L 422.350006 166.559998 L 424.079987 166.559998 L 423.480011 165.270004 Z M 430.76001 163.540009 L 428.269989 166.320007 L 430.160004 166.559998 L 431.850006 165.040009 Z M 422.470001 158.630005 L 424.320007 158.059998 L 423.76001 154.800003 L 424.850006 153.589996 L 425.769989 156.01001 L 427.98999 156.779999 L 427.98999 155.040009 L 426.73999 152.279999 L 429.109985 150.290009 L 425.329987 150.449997 L 424.549988 149.37001 L 426.049988 147.720001 L 428.829987 148.680008 L 430.200012 148.559998 L 432.25 146.139999 L 430.450012 146.100006 L 429.279999 146.87001 L 425.410004 145.930008 L 422.850006 148.240005 L 423.029999 151.900009 L 421.540009 153.880005 Z M 436.359985 153.440002 L 435.929993 154.949997 L 440.119995 154.520004 L 440.119995 153.440002 Z M 437.329987 143.690002 L 435.929993 145.070007 L 435.399994 148.51001 L 437.329987 148.979996 L 436.899994 145.930008 L 438.019989 144.529999 Z M 446.820007 152.839996 L 446.26001 149.860001 L 441.670013 150.51001 Z M 446.51001 155.320007 L 452.910004 157.990005 L 454.059998 161.26001 L 451.929993 162.559998 L 457.410004 164.460007 L 457.410004 153.669998 L 452.959991 151.350006 L 448.809998 154.720001 L 444.420013 152.990005 L 443.929993 155.410004 Z M 427.450012 84.139999 L 423.130005 80.604996 L 421.220001 82.369003 L 423.799988 87.953003 L 426.920013 87.738007 Z M 423.130005 80.604996 L 421.220001 79.041 L 423.690002 78.718994 L 423.26001 73.779999 L 416.910004 78.153992 L 418.769989 81.684006 L 421.220001 82.369003 Z M 417.600006 137.585007 L 414.160004 142.214996 L 406.220001 145.88501 L 407.850006 146.875 L 415.420013 145.184998 L 417.679993 140.915009 L 420.470001 140.625 L 420.470001 137.345001 Z M 391.279999 137.585007 L 392.660004 142.065002 L 398.339996 146.904999 L 398.779999 145.184998 L 393.420013 137.264999 Z M 459.399994 165.165009 L 463.209991 161.665009 L 468.149994 166.485001 L 472.660004 167.404999 L 467.079987 161.824997 L 467.350006 158.875 L 457.410004 153.675003 L 457.410004 164.464996 Z M 469.859985 159.38501 L 471.869995 160.585007 L 475.339996 158.63501 L 475.339996 156.615005 Z M 472.660004 153.714996 L 476.709991 156.615005 L 478.329987 156.065002 L 474.220001 153.615005 Z M 388.369995 110.875 L 384.019989 103.625 L 385.140015 100.565002 L 382.619995 99.485001 L 379.23999 101.914993 L 377.649994 112.904999 L 380.160004 115.005005 L 381.119995 120.024994 L 382.890015 120.554993 L 384.160004 118.964996 L 386.519989 121.625 L 387.829987 126.485001 L 387.519989 131.505005 L 389.549988 127.525009 L 385.899994 114.365005 L 388.369995 112.574997 Z M 395.670013 117.054993 L 398.589996 121.024994 L 395.859985 123.764999 L 401.980011 123.764999 L 401.980011 122.205002 L 396.019989 115.865005 L 394.700012 111.785004 L 390.559998 109.764999 L 388.369995 110.875 L 388.369995 112.574997 L 390.51001 113.824997 L 390.51001 117.054993 Z M 390.51001 117.054993 L 390.51001 113.824997 L 388.369995 112.574997 L 385.899994 114.365005 L 389.549988 127.525009 L 387.519989 131.505005 L 387.399994 133.485001 L 390.940002 136.485001 L 391.279999 137.585007 L 393.420013 137.264999 L 389.980011 132.195007 L 390.779999 124.354996 L 394.649994 128.184998 L 394.649994 124.975006 L 398.589996 121.024994 L 395.670013 117.054993 Z M 394.649994 124.975006 L 394.649994 128.184998 L 396.579987 130.104996 L 398.75 129.805008 L 401.980011 127.38501 L 401.980011 123.764999 L 395.859985 123.764999 Z M 396.019989 115.865005 L 401.980011 122.205002 L 401.980011 127.38501 L 398.75 129.805008 L 398.829987 133.264999 L 405.01001 129.184998 L 404.799988 123.115005 L 398.350006 116.304993 L 398.670013 112.574997 L 400.970001 111.274994 L 395.98999 107.014999 L 390.559998 109.764999 L 394.700012 111.785004 Z M 370.25 102.664993 L 368.880005 103.304993 L 370.820007 109.434998 L 372.070007 108.225006 L 377.649994 112.904999 L 378.01001 110.404999 L 375.079987 107.664993 L 374.600006 104.384995 L 372.26001 105.345001 Z M 372.26001 102.244995 L 368.880005 101.404999 L 369.350006 99.285004 L 368.380005 98.949005 L 366.309998 102.244995 L 354.940002 97.938995 L 354.970001 94.307007 L 352.130005 93.322998 L 351.809998 86.880005 L 349.329987 85.75 L 347.040009 85.75 L 343.640015 88.166 L 343.549988 90.222992 L 345.609985 91.389999 L 346.589996 95.410995 L 342.119995 99.524994 L 339.26001 99.524994 L 339.26001 102.565002 L 341.399994 103.375 L 341.399994 105.994995 L 337.540009 107.024994 L 337.869995 107.414993 L 341.059998 108.425003 L 339.570007 109.955002 L 340.980011 111.785004 L 343.51001 112.085007 L 343.959991 109.985001 L 344.959991 109.994995 L 353.089996 133.375 L 358.25 130.205002 L 359.049988 120.804993 L 370.820007 109.434998 L 368.880005 103.304993 L 370.25 102.664993 L 372.26001 105.345001 L 374.600006 104.384995 L 375.079987 107.664993 L 378.01001 110.404999 L 379.23999 101.914993 L 382.619995 99.485001 L 376.929993 97.026993 L 373.070007 100.565002 Z M 354.970001 94.307007 L 354.940002 97.938995 L 366.309998 102.244995 L 368.380005 98.949005 Z M 369.350006 99.285004 L 368.880005 101.404999 L 372.26001 102.244995 L 373.070007 100.565002 Z M 304.940002 72.115005 L 307.350006 74.117004 L 310.420013 73.268997 L 313.140015 75.539001 L 312.670013 69.645004 L 316.859985 68.679001 L 322.380005 72.464005 L 327 71.578003 L 330.380005 76.033997 L 333.640015 75.889999 L 336.829987 73.268997 L 344.359985 72.942001 L 349.179993 75.175003 L 347.929993 69.363998 L 355.440002 63.641006 L 351.109985 61.108994 L 325.869995 52.208008 L 315.920013 54.451004 L 315.920013 58.949005 L 298.279999 58.949005 L 298.279999 64.761002 L 300.640015 67.712997 L 305.690002 65.673004 L 308.700012 67.712997 L 305.049988 69.483994 Z M 324.26001 85.994995 L 322.570007 83.257996 L 315.970001 81.164001 L 312.070007 82.464005 L 312 84.201004 L 307.029999 84.197998 L 304.290009 79.363007 L 297.73999 80.009995 L 297.73999 81.942993 L 305.690002 95.432999 L 308.049988 95.658997 L 313.529999 101.375992 L 323.619995 104.386002 L 326.420013 104.386002 L 328.450012 100.895996 L 326.200012 98.074997 L 322.980011 88.733994 Z M 313.140015 75.544998 L 310.420013 73.274994 L 307.350006 74.123001 L 312.25 78.181 L 312.070007 82.466995 L 315.970001 81.166992 L 322.579987 83.261002 L 324.269989 85.998001 L 330.549988 82.776993 L 320.200012 74.494003 L 315.809998 74.494003 Z M 339.26001 99.524994 L 342.119995 99.524994 L 346.589996 95.410995 L 345.609985 91.389999 L 343.549988 90.222992 L 343.640015 88.166 L 347.040009 85.75 L 349.329987 85.75 L 344.559998 83.570999 L 339.480011 84.304001 L 337.869995 91.281998 L 332 96.709 L 325.700012 96.645996 L 326.200012 98.074005 L 328.450012 100.895004 L 326.420013 104.384995 L 335.220001 104.384995 L 337.540009 107.024994 L 341.399994 105.994995 L 341.399994 103.375 L 339.26001 102.565002 Z M 322.380005 72.464996 L 316.859985 68.679993 L 312.670013 69.645996 L 313.140015 75.539993 L 315.809998 74.488998 L 320.200012 74.488998 L 330.549988 82.772003 L 333.940002 83.679001 L 332.399994 79.149002 L 337.209991 77.768997 L 337.480011 75.720993 L 330.380005 76.035004 L 327 71.578995 Z M 324.26001 85.994995 L 322.980011 88.733994 L 325.700012 96.647003 L 332 96.710007 L 337.869995 91.283005 L 339.480011 84.304993 L 338.440002 81.365005 L 333.940002 83.681 L 330.549988 82.774002 Z M 338.01001 80.009995 L 333.970001 78.699005 L 332.399994 79.151001 L 333.940002 83.681 L 338.440002 81.365005 L 339.480011 84.304993 L 344.559998 83.572006 L 343.809998 83.231003 L 342.329987 79.600006 Z M 336.829987 73.272003 L 333.640015 75.893005 L 337.480011 75.722992 L 337.209991 77.770996 L 333.970001 78.699005 L 338.01001 80.009995 L 342.329987 79.600006 L 341.660004 77.970993 L 349.179993 75.177994 L 344.359985 72.944992 Z M 298.279999 77.044006 L 301.160004 79.671997 L 304.290009 79.363007 L 302.109985 75.522003 L 299.75 74.938004 Z M 292.089996 75.957001 L 296.359985 77.044006 L 298.279999 77.044006 L 299.75 74.938004 L 294.299988 72.466995 L 292.089996 72.944992 Z M 297.73999 80.009995 L 301.160004 79.671997 L 298.279999 77.044006 L 296.359985 77.044006 Z M 265.190002 47.259995 L 264.059998 47.527008 L 264.350006 47.744003 L 264.029999 49.194 L 260.859985 47.744003 L 260.869995 49.626007 L 265.190002 50.727997 L 268.299988 52.151001 L 269.5 51.125 L 269.070007 48.069 L 267.48999 48.548996 Z M 260.880005 51.777008 L 263.290009 52.580002 L 263.950012 53.944 L 264.470001 55.399002 L 268.299988 52.151001 L 265.190002 50.727997 L 260.869995 49.626007 Z M 273.119995 51.125 L 269.5 51.125 L 264.470001 55.399002 L 265.269989 57.604004 L 272.480011 58.753998 L 276.980011 57.772003 L 274.299988 56.682007 L 275.910004 55.654999 Z M 263.079987 45.537003 L 262.700012 46.503006 L 264.059998 47.527008 L 265.190002 47.259995 L 267.48999 48.548996 L 269.070007 48.069 L 268.579987 44.587997 L 267.679993 45.432999 Z M 272.480011 58.757004 L 265.269989 57.606995 L 265.720001 58.858994 L 263.140015 62.076004 L 263.140015 63.895996 L 272.890015 63.895996 L 273.829987 65.677994 L 272.140015 68.326996 L 273.619995 68.945999 L 274.019989 67.718002 L 279.799988 67.718002 L 278.519989 69.046005 L 280.299988 70.052994 L 282.700012 69.865005 L 280.420013 66.953003 L 286.420013 65.677994 L 287.950012 62.242004 L 276.980011 57.774994 Z M 258.75 30.597 L 248.649994 38.005005 L 248.649994 44.593994 L 247.259995 46.770996 L 251.059998 51.145996 L 257.26001 45.656006 L 254.360001 42.056 L 260.890015 34.919006 L 262.179993 34.919006 L 260.399994 30.597 Z M 240.940002 47.266998 L 246.850006 46.300995 L 247.259995 46.772003 L 248.649994 44.595001 L 248.649994 38.005997 L 258.76001 30.598007 L 264.350006 30.598007 L 264.350006 28.753006 L 258.619995 29.044998 L 238.970001 42.645004 Z M 264.350006 30.597 L 260.410004 30.597 L 262.179993 34.919006 L 263.220001 34.919006 L 260.079987 42.031998 L 263.75 43.884003 L 269.339996 43.884003 L 272.480011 40.259995 L 267.269989 28.600006 L 264.350006 28.748001 Z M 433.75 62.996994 L 435.679993 62.996994 L 428.869995 56.018005 L 426.940002 55.962997 L 432.410004 62.727997 L 435.089996 67.720993 L 437.079987 67.720993 Z M 263.25 52.587006 L 260.839996 51.783997 L 260.850006 53.387009 L 263.910004 53.951004 Z M 407.350006 28.457001 L 405.5 25.944 L 394.059998 24.074005 L 390.839996 26.973007 L 381.579987 26.973007 L 377.720001 24.074005 L 356.779999 24.074005 L 355.48999 19.458008 L 336.160004 19.458008 L 319.119995 27.080002 L 322.850006 31.697998 L 319.630005 35.026001 L 316.720001 25.514999 L 311.579987 25.108002 L 314.049988 30.731003 L 294.179993 31.268005 L 275.609985 38.891006 L 273.160004 34.223007 L 280.220001 34.488998 L 283.660004 32.770996 L 270.130005 28.457001 L 267.25 28.604004 L 272.459991 40.264008 L 269.320007 43.888 L 268.559998 44.598007 L 269.049988 48.078995 L 269.480011 51.134995 L 273.100006 51.134995 L 275.890015 55.665009 L 274.279999 56.692001 L 276.959991 57.781998 L 287.929993 62.249008 L 286.399994 65.684998 L 287.119995 67.401993 L 285.350006 67.884995 L 285.660004 70.709 L 292.070007 72.953995 L 294.279999 72.475998 L 299.730011 74.947006 L 302.089996 75.531006 L 300.619995 72.953995 L 300.619995 67.725006 L 298.26001 64.772995 L 298.26001 58.960999 L 315.899994 58.960999 L 315.899994 54.462997 L 325.850006 52.220001 L 351.089996 61.121002 L 355.420013 63.651001 L 360.75 59.591003 L 367.890015 61.764999 L 369.820007 57.417007 L 387.380005 61.764999 L 395.970001 61.764999 L 399.190002 61.121002 L 397.470001 55.054001 L 404.98999 55.054001 L 412.720001 62.625 L 423.23999 65.309006 L 423.23999 73.791992 L 427.850006 72.981995 L 430.329987 69.281998 L 430.329987 62.410004 L 423.23999 54.356995 L 416.369995 54.25 L 417.549988 45.768005 L 431.720001 45.875 L 433.26001 41.061005 L 439.23999 43.324005 L 439.26001 41.104996 L 440.73999 41.257996 L 443.320007 43.727005 L 440.829987 45.421997 L 440.529999 50.490997 L 450.619995 60.048004 L 450.619995 50.813995 L 444.929993 45.337006 L 458.410004 41.069 L 458.579987 39.693008 L 451.799988 37.848007 L 454.440002 35.791 L 460.5 37.042999 L 464.609985 37.124008 L 461.309998 33.583008 L 440.149994 29.391998 Z M 256.25 64.397003 L 253.759995 66.438004 L 257.380005 67.783005 L 261.23999 67.117004 L 264.299988 63.899002 L 263.089996 63.899002 L 263.089996 63.138 Z M 254.399994 62.647003 L 256.25 64.397003 L 263.089996 63.138 L 263.089996 62.078995 L 256.890015 61.326004 L 256.630005 61.223999 Z M 241.339996 67.623993 L 243.559998 67.783005 L 245.570007 67.319 L 244.850006 65.143997 L 242.960007 65.143997 L 241.729996 65.710999 Z M 249.839996 62.647003 L 254.399994 62.647003 L 256.630005 61.223999 L 252.270004 59.505997 L 248.369995 60.714005 Z M 219.199997 83.606995 L 220.100006 83.675003 L 221.139999 74.938995 L 217.759995 74.373993 L 217.589996 80.761993 Z M 272.089996 68.326996 L 273.779999 65.677994 L 272.839996 63.895996 L 269.950012 63.895996 Z M 263.899994 53.947006 L 260.839996 53.382996 L 257.619995 53.488998 L 256.890015 52.820007 L 252.270004 53.947006 L 251.860001 53.942001 L 252.270004 59.503006 L 256.640015 61.221008 L 256.890015 61.322998 L 263.089996 62.076004 L 265.670013 58.858994 L 265.220001 57.606995 L 264.420013 55.402008 Z M 264.299988 63.895996 L 261.23999 67.113998 L 263.980011 71.664001 L 270.820007 70.884995 L 272.769989 71.421997 L 273.570007 68.945999 L 272.089996 68.326996 L 269.950012 63.895996 Z M 251.850006 53.942001 L 245.919998 53.874008 L 245.649994 52.820007 L 243.570007 52.820007 L 243.990005 53.835007 L 240.869995 55.703995 L 240.589996 61.089005 L 242.479996 62.076004 L 241.729996 65.707993 L 242.960007 65.141006 L 247.360001 65.141006 L 247.740005 65.029999 L 250.929993 64.093994 L 249.839996 62.643997 L 248.369995 60.710999 L 252.270004 59.503006 Z M 243.570007 52.820007 L 245.649994 52.820007 L 245.539993 52.374008 L 246.220001 48.552002 L 244.350006 48.526001 L 243.020004 51.524002 Z M 249.119995 51.481995 L 247.949997 50.322998 L 246.910004 50.75 L 246.589996 52.393005 L 248.529999 52.374008 Z M 250.929993 64.091995 L 247.360001 65.138992 L 244.850006 65.138992 L 245.570007 67.313995 L 249.380005 66.432999 L 253.759995 66.432999 L 255.589996 64.929001 L 256.25 64.391998 L 254.399994 62.641998 L 249.839996 62.641998 Z M 253.110001 81.481995 L 249.240005 81.481995 L 249.240005 82.449005 L 250.690002 83.442001 L 253.110001 83.817001 Z M 242.960007 76.033005 L 242.960007 80.005997 L 244.809998 80.005997 L 244.809998 76.569992 Z M 241.339996 67.615005 L 240.990005 69.322006 L 243.229996 70.343002 L 245.830002 70.343002 L 253.830002 78.326004 L 254.240005 81.722992 L 255.710007 80.863998 L 256.170013 78.421997 L 257.98999 78.057007 L 248.229996 69.610001 L 251 69.444 L 249.380005 66.429001 L 243.559998 67.774002 Z M 243.889999 73.296005 L 243.889999 74.934006 L 244.809998 75.281006 L 245.220001 73.296005 Z M 225.429993 63.255997 L 225.429993 64.436996 L 228.75 66.231003 L 229.190002 72.113998 L 234.110001 75.261002 L 235.630005 73.296005 L 242.830002 73.347992 L 243.039993 70.343002 L 243.229996 70.343002 L 240.990005 69.322006 L 242.479996 62.070007 L 235.929993 58.653 L 228.25 63.255997 Z M 237.759995 57.559998 L 235.929993 58.653 L 239.600006 60.567001 L 240.649994 60.001007 L 240.690002 59.115005 Z M 240.690002 59.115005 L 240.869995 55.697998 L 237.759995 57.559998 Z M 239.600006 60.567001 L 240.589996 61.083008 L 240.639999 60.001007 Z M 227.580002 52.197006 L 227.619995 54.666 L 225.929993 55.591995 L 227.419998 57.761002 L 224.399994 60.625 L 228.389999 59.899994 L 232.449997 59.255997 L 232.710007 57.766006 L 233.539993 57.766006 L 233.720001 56.102997 L 231.089996 55.548004 L 227.800003 47.988007 L 225.289993 47.910995 L 225.289993 51.981995 Z M 224.399994 53.981003 L 224.399994 52.367996 L 221.460007 52.169006 L 223.149994 54.423996 Z M 218.479996 54.354004 L 218.479996 58.757004 L 220.169998 58.746002 L 220.169998 57.242996 L 223.389999 57.686005 L 223.149994 54.423996 L 221.460007 52.169006 Z M 220.100006 83.673996 L 227.149994 84.201004 L 234.110001 75.264999 L 229.190002 72.117996 L 217.809998 72.199997 L 217.759995 74.373001 L 221.139999 74.938004 Z M 235.720001 79.914001 L 235.720001 78.022995 L 233.539993 79.914001 Z M 261.480011 77.714996 L 265.950012 76.268997 L 264.920013 73.867004 L 261.23999 74.587006 Z M 258.649994 67.554993 L 259.470001 72.115005 L 261.23999 74.584 L 264.920013 73.863998 L 263.980011 71.658997 L 261.23999 67.108994 Z M 251 69.444992 L 251.410004 69.421005 L 253.509995 68.322006 L 254.460007 66.692001 L 253.759995 66.429993 L 249.380005 66.429993 Z M 273.320007 78.289001 L 269.98999 78.261993 L 272.730011 83.768005 L 285.320007 84.462997 L 297.690002 81.940002 L 297.690002 80.007004 L 296.309998 77.041 L 292.040009 75.953995 L 274.799988 76.518005 Z M 269.980011 77.041 L 273.049988 77.041 L 271.809998 74.371002 L 269.950012 74.972 Z M 256.230011 73.470993 L 257.339996 73.746002 L 259.470001 72.115005 L 258.869995 68.761002 L 254.320007 69.376999 Z M 259.820007 78.248001 L 261.23999 79.888 L 263.980011 80.653992 L 262.309998 81.362 L 264.519989 84.139999 L 265.910004 81.940002 L 264.359985 78.557007 L 267.440002 77.041 L 269.980011 77.041 L 269.950012 74.972 Z M 257.380005 67.778 L 254.460007 66.694992 L 253.509995 68.324997 L 251.410004 69.423996 L 252.139999 69.380005 L 255.529999 73.300003 L 256.230011 73.473999 L 254.320007 69.380005 L 258.869995 68.763992 L 258.649994 67.557999 Z M 258.670013 74.078003 L 260.269989 73.227005 L 259.470001 72.117996 L 257.339996 73.748993 Z L 259.570007 77.959 L 259.820007 78.250992 L 261.480011 77.714996 L 261.23999 74.587006 L 260.269989 73.227005 Z M 265.950012 76.268997 L 271.809998 74.373993 L 272.769989 71.419998 L 270.820007 70.882996 L 263.980011 71.662003 Z M 309.679993 104.408997 L 311.040009 105.309006 L 311.929993 104.388992 L 310.369995 102.188995 Z M 282.549988 85.878998 L 278.959991 87.207993 L 281.529999 87.852005 Z M 284.859985 90.472 L 284.859985 96.925003 L 286.209991 97.085999 L 288.220001 96.145996 L 288.839996 92.522003 L 290.410004 91.858002 L 290.48999 91.824005 L 290.029999 89.899002 L 286.799988 91.824005 Z M 309.23999 104.121994 L 305.690002 98.322006 L 304.140015 98.322006 L 303.029999 96.882996 L 300 96.873001 L 290.410004 91.860001 L 288.829987 92.524002 L 288.220001 96.147995 L 286.200012 97.087997 L 284.859985 96.927002 L 297.369995 118.666992 L 297.619995 119.477005 L 298.920013 117.246994 L 303.359985 117.807007 L 302.950012 119.496994 L 309.23999 116.197006 L 318.089996 113.826996 L 318.089996 109.216995 L 313.480011 108.567001 L 312.079987 105.996994 Z M 301.630005 96.878006 L 303.040009 96.882996 L 304.140015 98.322006 L 305.690002 98.322006 L 303.809998 95.261993 L 302.040009 95.261993 Z M 292.649994 88.337006 L 290.029999 89.901001 L 290.51001 91.912003 L 300 96.873001 L 301.630005 96.878006 L 302.040009 95.261993 L 305.529999 95.240997 L 297.690002 81.951004 L 294.089996 82.686005 Z M 315.440002 106.656998 L 312.079987 105.996994 L 313.480011 108.567001 L 316.079987 108.936996 L 319.779999 105.177002 L 318.089996 103.677002 Z M 316.079987 108.936996 L 318.089996 109.216995 L 318.089996 113.826996 L 313.640015 115.016998 L 313.640015 117.697006 L 316.119995 119.376999 L 324.320007 109.216995 L 319.779999 105.177002 L 316.079987 108.936996 Z M 286.320007 87.766998 L 284.859985 90.468002 L 286.799988 91.819992 L 292.649994 88.330994 L 294.089996 82.677994 L 285.320007 84.466003 L 284.730011 87.216003 Z M 309.23999 116.197006 L 302.950012 119.496994 L 303.359985 117.807007 L 298.920013 117.246994 L 297.619995 119.477005 L 299.839996 126.716995 L 316.119995 119.376999 L 313.640015 117.697006 L 313.640015 115.016998 Z M 284.859985 90.466995 L 286.320007 87.766006 L 284.730011 87.214996 L 284.149994 89.962997 Z M 284.820007 97.014999 L 284.859985 96.919998 L 284.859985 90.466995 L 284.149994 89.962997 L 283.029999 94.097992 Z M 298.200012 189.154999 L 299.899994 193.175003 L 303.970001 193.354996 L 310.899994 171.125 L 308.429993 171.125 L 300.380005 179.485001 L 299.570007 185.285004 Z M 253.460007 134.555008 L 252.279999 131.065002 L 254.639999 131.065002 L 251.729996 124.884995 L 251.729996 128.305008 L 247.550003 136.964996 L 243.899994 137.175003 L 243.389999 140.735001 L 244.970001 140.735001 L 244.889999 144.375 L 254.960007 144.375 L 255.410004 143.085007 L 255.389999 143.085007 L 252.380005 138.845001 Z M 247.660004 147.025009 L 244.830002 147.025009 L 244.740005 151.354996 L 248.369995 156.205002 L 248.369995 152.055008 L 253.029999 152.055008 L 250.649994 144.375 L 247.660004 144.375 Z L 247.660004 144.375 L 244.899994 144.375 L 244.830002 147.025009 Z M 238.210007 137.88501 L 238.850006 140.735001 L 243.389999 140.735001 L 243.899994 137.175003 L 247.550003 136.964996 L 251.729996 128.305008 L 251.729996 124.884995 L 236.080002 124.884995 L 233.539993 137.205002 Z M 215.119995 135.525009 L 216.270004 136.815002 L 216.270004 142.184998 L 224.789993 139.725006 L 224.789993 131.845001 L 216.470001 130.205002 L 216.470001 134.345001 Z M 216.270004 142.184998 L 216.270004 136.815002 L 213.190002 133.345001 L 210.460007 135.915009 Z M 267.559998 167.24501 L 264.619995 165.794998 L 264.619995 160.434998 L 261.299988 160.434998 L 260.630005 162.794998 L 257.320007 162.904999 L 256.459991 159.934998 L 251.199997 159.975006 L 251.199997 171.705002 L 248.199997 176.645004 L 248.460007 179.865005 L 267.01001 179.865005 L 263.980011 176.104996 L 263.980011 171.915009 L 267.679993 171.915009 Z M 230.570007 138.055008 L 229.190002 129.615005 L 224.789993 129.615005 L 224.789993 139.725006 Z M 250.649994 144.375 L 253.029999 152.055008 L 248.369995 152.055008 L 248.369995 156.205002 L 250.199997 158.645004 L 254.639999 156.615005 L 259.309998 148.865005 L 260.049988 143.085007 L 255.410004 143.085007 L 254.960007 144.375 Z M 294.049988 123.085007 L 296.799988 127.434998 L 297.850006 126.554993 L 290.880005 114.585007 L 287.279999 123.085007 Z M 210.470001 135.915009 L 213.190002 133.345001 L 210.399994 130.205002 L 207.690002 132.925003 Z M 297.529999 130.275009 L 299.279999 129.014999 L 297.850006 126.554993 L 295.76001 128.305008 Z M 284.589996 169.335007 L 284.589996 171.915009 L 286.850006 173.425003 L 286.850006 176.645004 L 284.700012 178.525009 L 284.700012 174.755005 L 282.549988 172.99501 L 282.48999 173.035004 L 278.429993 175.865005 L 282.48999 178.525009 L 282.48999 182.24501 L 279.950012 188.184998 L 279.950012 194.764999 L 281.790009 194.735001 L 281.910004 193.845001 L 285.720001 191.184998 L 285.440002 183.175003 L 294.380005 175.845001 L 293.48999 167.485001 Z M 299.279999 129.014999 L 297.529999 130.275009 L 299.309998 132.275009 L 306.399994 134.785004 L 295.329987 144.005005 L 295.329987 152.025009 L 312.679993 131.845001 L 311.970001 128.305008 L 299.910004 130.095001 Z M 255.070007 198.49501 L 261.730011 198.49501 L 261.730011 181.464996 L 270.570007 181.464996 L 269.420013 179.865005 L 248.460007 179.865005 Z M 288.049988 140.205002 L 285.01001 140.63501 L 285.880005 144.375 L 285.450012 147.544998 L 284.089996 149.945007 L 292.410004 155.434998 L 295.329987 152.025009 L 295.329987 144.005005 L 298.549988 141.315002 L 289.109985 141.315002 Z M 284.089996 149.945007 L 283.570007 150.854996 L 280.579987 150.854996 L 281.350006 149.535004 L 279.98999 149.535004 L 276.929993 157.115005 L 282.48999 164.945007 L 284.589996 164.945007 L 284.589996 169.335007 L 293.48999 167.485001 L 292.410004 155.434998 Z M 215.979996 102.444992 L 211.039993 102.444992 L 211.039993 108.115005 L 209.220001 110.875 L 203.119995 110.875 L 202.899994 117.244995 L 210.399994 122.634995 L 210.399994 120.705002 L 219.419998 120.705002 L 218.559998 105.324997 L 223.309998 105.324997 L 215.979996 99.914993 Z M 278.75 152.615005 L 279.98999 149.535004 L 277.350006 149.535004 L 276.51001 153.085007 Z M 276.929993 157.115005 L 278.75 152.615005 L 276.51001 153.085007 L 275.899994 155.654999 Z M 204.800003 129.805008 L 207.690002 132.925003 L 210.399994 130.205002 L 213.190002 133.345001 L 215.119995 135.525009 L 216.470001 134.345001 L 216.470001 130.205002 L 215.820007 127.255005 L 207.229996 127.255005 Z M 219.419998 120.705002 L 210.399994 120.705002 L 210.399994 122.634995 L 212.440002 127.255005 L 215.820007 127.255005 L 216.470001 130.205002 L 220.630005 131.025009 L 220.630005 126.854996 L 236.600006 120.384995 L 236.600006 115.115005 L 223.309998 105.324997 L 218.559998 105.324997 Z M 274.929993 168.375 L 278.149994 169.665009 L 277.029999 171.915009 L 267.559998 167.24501 L 267.679993 171.915009 L 263.980011 171.915009 L 263.980011 176.104996 L 267.01001 179.865005 L 272.679993 179.865005 L 282.48999 173.035004 L 282.48999 164.945007 L 281.26001 163.214996 L 275.899994 164.025009 Z M 261.730011 192.425003 L 264.410004 195.514999 L 275.350006 188.184998 L 270.570007 181.464996 L 261.730011 181.464996 Z M 220.630005 131.025009 L 224.789993 131.845001 L 224.789993 129.615005 L 229.190002 129.615005 L 234.300003 127.735001 L 229.419998 123.294998 L 220.630005 126.854996 Z M 282.48999 164.945007 L 282.48999 173.035004 L 282.549988 172.99501 L 284.700012 174.755005 L 284.700012 178.525009 L 286.850006 176.645004 L 286.850006 173.425003 L 284.589996 171.915009 L 284.589996 164.945007 Z M 296.799988 127.434998 L 294.049988 123.085007 L 287.279999 123.085007 L 282.48999 134.395004 L 289.109985 141.315002 L 298.549988 141.315002 L 306.399994 134.785004 L 299.309998 132.275009 L 295.76001 128.305008 Z M 277.350006 149.535004 L 281.350006 149.535004 L 282.48999 147.544998 L 285.450012 147.544998 L 285.880005 144.375 L 285.01001 140.63501 L 279.279999 141.434998 Z M 236.600006 115.115005 L 236.600006 120.384995 L 229.419998 123.294998 L 234.309998 127.735001 L 235.589996 127.264999 L 236.080002 124.884995 L 251.729996 124.884995 L 255.259995 117.645004 L 253.869995 108.115005 L 246.910004 108.115005 Z M 203.130005 110.875 L 209.220001 110.875 L 211.050003 108.115005 L 211.050003 102.444992 L 215.990005 102.444992 L 215.990005 99.005997 L 210.550003 99.005997 L 203.210007 108.565002 Z M 202.679993 123.444992 L 207.610001 124.884995 L 202.630005 124.884995 L 202.539993 127.255005 L 212.440002 127.255005 L 210.399994 122.634995 L 202.899994 117.244995 Z M 207.610001 124.884995 L 202.679993 123.444992 L 202.630005 124.884995 Z M 255.25 117.645004 L 251.729996 124.884995 L 254.639999 131.065002 L 252.279999 131.065002 L 253.460007 134.555008 L 265.140015 129.035004 L 265.140015 123.024994 L 267.73999 120.464996 L 268 114.625 L 257.859985 108.115005 L 253.869995 108.115005 Z M 255.279999 93.964996 L 253.149994 91.382996 L 248.580002 90.285995 L 244.330002 94.856995 L 247.089996 108.117004 L 257.859985 108.117004 L 268 114.626999 L 268.98999 92.186996 L 263.089996 91.386993 L 260.649994 95.037994 Z M 215.130005 99.003006 L 215.990005 99.003006 L 215.990005 98.272003 L 228.229996 91.591003 L 228.229996 86.796997 L 219.210007 87.737 L 210.550003 99.007004 Z M 228.229996 86.802994 L 228.229996 91.597 L 215.990005 98.278 L 215.990005 99.917999 L 236.600006 115.117996 L 246.910004 108.117996 L 247.089996 108.117996 L 242.059998 83.947998 L 236.139999 83.776993 Z M 242.059998 83.944 L 244.330002 94.863998 L 248.580002 90.292999 L 246.910004 89.893005 L 247.119995 84.093002 Z M 269.420013 179.863998 L 275.350006 188.184006 L 279.950012 188.184006 L 282.48999 182.244003 L 282.48999 178.524002 L 278.429993 175.863998 L 272.679993 179.863998 Z M 272.140015 202.524002 L 274.5 202.524002 L 275.899994 201.064011 L 275.899994 199.194 L 273.970001 199.194 L 272.140015 200.374008 Z M 279.950012 194.154007 L 278.149994 194.154007 L 278.149994 195.804001 L 279.950012 196.884003 Z M 284.790009 97.093994 L 284.820007 97.009995 L 283.029999 94.093002 L 268.98999 92.184998 L 268.23999 109.205002 L 283.630005 109.205002 L 286.730011 107.434998 L 280.350006 96.475006 L 283.839996 99.319992 Z M 286.730011 107.444 L 283.630005 109.214005 L 268.230011 109.214005 L 267.73999 120.464005 L 265.140015 123.024002 L 265.140015 129.033997 L 274.350006 139.634003 L 279.279999 141.434006 L 288.040009 140.20401 L 282.48999 134.393997 L 287.279999 123.084 L 290.880005 114.584 Z M 275.899994 155.654007 L 279.279999 141.434006 L 274.350006 139.634003 L 260.440002 140.024002 L 259.309998 148.863998 L 254.639999 156.613998 L 250.199997 158.643997 L 251.199997 159.973999 L 256.459991 159.934006 L 257.320007 162.904007 L 260.630005 162.794006 L 261.299988 160.434006 L 264.619995 160.434006 L 264.619995 165.794006 L 277.029999 171.914001 L 278.149994 169.664001 L 274.929993 168.374008 L 275.899994 164.024002 L 281.26001 163.214005 Z M 252.380005 138.844009 L 255.389999 143.084 L 260.049988 143.084 L 260.440002 140.024002 L 274.350006 139.634003 L 265.140015 129.033997 L 253.460007 134.554001 Z M 235.589996 127.263992 L 231.229996 128.863998 L 232.660004 137.45401 L 233.539993 137.20401 Z M 231.229996 128.863998 L 229.190002 129.613998 L 230.570007 138.054001 L 232.660004 137.45401 Z M 204.800003 129.804001 L 207.229996 127.253998 L 202.550003 127.253998 L 202.539993 127.363998 Z M 68.5 29.503998 L 64.849998 28 L 45.740002 28.108002 L 38.009998 31.222 L 38.009998 34.658005 L 29.313999 34.550995 L 27.664 36.854004 L 35.002998 36.589996 L 25.555 40.134003 L 20.99 46.319 L 24.910999 46.253998 L 17.393999 51.193008 L 20.142 51.408005 L 34.532001 44.537003 L 51.141998 43.957001 L 56.188 49.003998 L 58.094002 46.951996 L 56.429001 45.233002 L 54.550999 45.233002 L 52.716999 43.130997 L 68.507004 29.501007 Z M 56.009998 61.464005 L 53.379002 59.315994 L 52.250999 60.283005 L 54.084999 62.681 L 56.009998 62.681 Z M 156.809998 64.789001 L 154.839996 61.651001 L 153.059998 61.225998 L 153.059998 58.975006 L 147.330002 64.789001 Z M 153.809998 28.468994 L 142.270004 23.755997 L 140.550003 23.738007 L 136.539993 27.031998 L 137.880005 23.718002 L 135.940002 23.703003 L 131.270004 28.667999 L 142.619995 28.050995 L 149.550003 34.251999 L 144.889999 34.171997 L 142.539993 36.097 L 137.25 36.097 L 137.25 37.608994 L 142.619995 37.608994 L 147.169998 41.371994 L 148.410004 40.830002 L 147.330002 38.440002 L 150.460007 39.930008 L 151.479996 39.487 L 151.479996 34.815994 L 155.080002 36.097 L 157.149994 34.716003 L 155.979996 32.531006 L 153.899994 31.772995 Z M 114.949997 70.598999 L 118.279999 70.598999 L 120.589996 69.016998 L 128.050003 69.016998 L 131.270004 66.225006 L 134.169998 66.225006 L 133.119995 69.528992 L 138.270004 68.641006 L 134.889999 70.250992 L 135.210007 71.647995 L 144.389999 68.423004 L 139.910004 68.210007 L 137.820007 66.326996 L 139.889999 63.117004 L 138.880005 62.153 L 132.389999 65.097992 L 132.389999 63.406998 L 138.600006 60.427002 L 148.550003 59.998001 L 156.029999 56.016998 L 156.070007 54.199997 L 150.619995 53.255997 L 149.960007 44.346008 L 142.830002 47.152008 L 142.880005 42.960007 L 139.440002 40.033997 L 134.770004 40.033997 L 122.139999 58.414001 L 119.080002 58.423996 L 119.139999 52.378998 L 108.260002 46.473999 L 119.139999 38.421005 L 125.309998 37.294998 L 124.019997 35.387009 L 133.520004 34.339996 L 137.389999 30.313995 L 133.759995 29.912003 L 128.770004 33.212997 L 129.330002 30.395004 L 127 30.153 L 126.449997 26.748001 L 122.410004 28.542007 L 123.459999 30.716995 L 118.059998 33.292999 L 108.639999 31.522003 L 103.660004 33.856995 L 91.57 29.026001 L 68.459999 29.509003 L 52.669998 43.139008 L 54.504002 45.240997 L 56.382 45.240997 L 58.047001 46.960007 L 56.140999 49.012009 L 54.208 57.858002 L 57.671001 60.999008 L 57.671001 62.690002 L 96.490997 62.690002 L 101.051003 64.770996 L 108.771004 63.132004 L 109.740997 66.554993 L 111.301003 67.707001 L 113.920998 67.522003 Z M 128.880005 36.098999 L 125.919998 38.505997 L 131.770004 39.125 L 132.389999 37.611008 Z M 117.459999 29.975998 L 118.550003 31.382996 L 121.309998 29.975998 L 120.489998 28.669998 Z M 119.550003 25.25 L 121.309998 27.033997 L 125.089996 25.772003 L 126.080002 23.130005 Z M 126.760002 24.188004 L 127.239998 25.878998 L 132.389999 24.509995 L 131.350006 23.130005 Z M 139.889999 20.684998 L 137.070007 19.516998 L 134.330002 21.852005 L 145.440002 22.727005 L 148.339996 20.684998 Z M 166.940002 14.444 L 172.740005 11.171005 L 149.710007 12.878998 L 149.710007 14.121994 L 157.479996 13.960999 L 156.389999 15.410995 L 148.339996 15.570999 L 149.389999 17.423996 L 145.919998 16.860001 L 147.289993 18.630997 L 141.330002 18.630997 L 142.220001 19.516998 L 148.740005 19.516998 L 149.789993 20.403 L 159.289993 15.973999 Z M 138.759995 15.787994 L 143.050003 16.598999 L 145.509995 15.024002 L 143.729996 13.695007 Z M 93.449997 27.037994 L 103.529999 23.608994 L 101.209999 22.533997 L 91.68 24.960999 Z M 104.830002 24.235001 L 99.399002 26.082001 L 102.599998 27.429993 L 97.607002 28.701996 L 103.809998 31.117996 L 108.080002 29.264999 L 112.830002 30.393005 L 116.389999 29.576004 L 112.910004 27.968994 L 115.589996 24.509003 L 112.910004 24.509003 L 111.300003 26.591003 L 110.650002 24.509003 L 107.809998 25.611008 Z M 96.962997 109.065002 L 101.910004 109.065002 L 105.900002 111.725006 L 104.379997 113.414993 L 111.300003 113.414993 L 103.029999 107.455002 L 98.653999 107.455002 Z M 103.889999 116.475006 L 104.93 117.365005 L 107.910004 117.365005 L 107.910004 116.315002 L 106.870003 115.264999 L 103.889999 115.264999 Z M 122.239998 115.654999 L 121.629997 116.664993 L 123.300003 116.664993 L 123.910004 115.654999 Z M 85.449997 119.975006 L 82.632004 119.975006 L 81.293999 122.354996 L 85.283997 124.365005 L 87.987 119.485001 L 87.462997 116.884995 L 85.047997 116.884995 Z M 88.591003 123.925003 L 88.106003 125.634995 L 88.832001 125.964996 L 95.497002 120.384995 L 87.464996 120.464996 L 86.139999 122.835007 Z M 88.106003 125.634995 L 88.591003 123.925003 L 86.139999 122.835007 L 85.283997 124.365005 Z M 90.603996 114.544998 L 87.462997 116.884995 L 87.987 119.485001 Z M 91.367996 129.38501 L 95.712997 129.845001 L 95.497002 120.384995 L 88.832001 125.964996 Z M 98.367996 155.725006 L 101.922997 157.425003 L 108.263 149.645004 L 101.803001 145.955002 L 98.737999 149.815002 Z M 111.428001 128.184998 L 109.708 128.175003 L 106.117996 133.025009 L 104.288002 133.145004 L 104.807999 134.904999 L 103.848 136.264999 L 104.587997 138.725006 L 103.888 143.315002 L 101.797997 145.955002 L 116.557999 154.38501 L 116.557999 144.925003 L 119.987999 144.695007 L 119.987999 137.184998 L 114.358002 136.604996 L 111.907997 133.895004 Z M 134.867996 242.985001 L 137.067993 245.005005 L 143.848007 245.255005 L 136.528 241.434998 Z M 145.287994 194.235001 L 142.328003 196.035004 L 138.348007 196.035004 L 138.348007 192.49501 L 130.218002 186.99501 L 129.757996 187.835007 L 122.977997 187.835007 L 121.157997 204.735001 L 124.987999 221.485001 L 128.447998 227.645004 L 128.608002 232.264999 L 133.748001 240.13501 L 135.617996 240.324997 L 134.647995 220.195007 L 145.548004 215.475006 L 140.608002 208.595001 L 140.608002 201.025009 L 145.417999 196.085007 Z M 146.488007 210.755005 L 148.848007 206.665009 L 140.608002 201.025009 L 140.608002 208.595001 Z M 123.538002 130.865005 L 119.888 128.264999 L 111.428001 128.184998 L 111.907997 133.895004 L 114.358002 136.604996 L 119.987999 137.184998 L 119.987999 144.695007 L 120.888 144.63501 L 122.028 147.184998 L 125.688004 146.005005 L 125.388 142.044998 L 130.287994 140.24501 L 131.738007 133.085007 L 130.087997 131.505005 Z M 91.358002 129.38501 L 94.250999 133.294998 L 95.294998 133.665009 L 96.761002 131.764999 L 95.734001 131.195007 L 95.703003 129.845001 Z M 136.837997 137.945007 L 131.727997 133.085007 L 130.278 140.24501 L 132.408005 139.464996 L 132.117996 145.574997 L 137.007996 145.025009 L 135.337997 140.74501 Z M 124.197998 167.434998 L 119.208 168.845001 L 119.208 180.255005 L 122.968002 187.835007 L 129.748001 187.835007 L 132.388 182.99501 L 137.498001 182.964996 L 137.378006 179.145004 L 128.677994 172.035004 Z M 141.397995 144.544998 L 144.677994 144.175003 L 145.647995 141.425003 L 144.358002 138.595001 L 141.617996 138.365005 Z M 137.498001 182.964996 L 132.388 182.99501 L 130.207993 186.99501 L 138.337997 192.49501 L 138.337997 196.035004 L 142.317993 196.035004 L 145.278 194.235001 L 145.078003 191.434998 L 137.638 187.464996 Z M 137.007996 145.025009 L 141.397995 144.544998 L 141.617996 138.365005 L 136.837997 137.945007 L 135.337997 140.74501 Z M 157.557999 151.154999 L 153.837997 149.544998 L 150.117996 151.725006 L 151.328003 148.464996 L 148.858002 147.395004 L 145.348007 150.095001 L 147.897995 146.335007 L 145.647995 141.425003 L 144.677994 144.175003 L 132.117996 145.574997 L 132.408005 139.464996 L 130.278 140.24501 L 125.377998 142.044998 L 125.678001 146.005005 L 122.017998 147.184998 L 120.877998 144.63501 L 116.547997 144.925003 L 116.547997 156.095001 L 112.148003 156.63501 L 110.208 162.964996 L 117.568001 169.305008 L 124.197998 167.434998 L 128.677994 172.035004 L 137.378006 179.145004 L 137.638 187.464996 L 145.078003 191.434998 L 145.408005 196.085007 L 140.598007 201.025009 L 148.837997 206.665009 L 153.638 198.294998 L 154.768005 191.044998 L 166.427994 185.88501 L 168.598007 169.764999 L 173.628006 163.184998 L 173.628006 159.205002 L 165.397995 153.845001 L 157.348007 153.354996 Z M 99.938004 131.625 L 98.571999 132.764999 L 96.760002 131.764999 L 95.293999 133.665009 L 99.607002 135.205002 L 100.652 133.645004 L 103.122002 133.88501 L 103.842003 136.264999 L 104.802002 134.904999 L 104.351997 133.255005 L 103.811996 131.285004 Z M 112.148003 156.63501 L 116.547997 156.095001 L 116.547997 154.38501 L 108.248001 149.645004 L 101.907997 157.425003 L 98.352997 155.725006 L 98.238998 157.544998 L 109.039001 175.934998 L 118.369003 182.184998 L 119.209 180.255005 L 119.209 168.845001 L 117.569 169.305008 L 110.209 162.964996 Z M 124.977997 221.485001 L 121.148003 204.735001 L 122.968002 187.835007 L 119.208 180.255005 L 118.367996 182.184998 L 119.938004 220.434998 L 124.068001 223.775009 L 124.258003 230.63501 L 131.417999 239.895004 L 133.738007 240.13501 L 128.598007 232.264999 L 128.438004 227.645004 Z M 119.977997 114.285004 L 115.108002 113.744995 L 115.108002 116.434998 L 116.737999 115.225006 L 119.337997 115.225006 Z M 115.108002 115.774994 L 115.108002 113.744995 L 112.068001 113.744995 L 113.057999 115.145004 L 111.288002 115.145004 L 111.288002 115.774994 Z M 434.808014 133.104996"/>
            <path id="path13058" fill="#bcbec0" stroke="#000000" stroke-width="0.25" stroke-linejoin="bevel" d="M 481.399994 219.300003 L 480.399994 222.5 L 487.700012 217.300003 L 485.600006 214.5 L 485.600006 211.300003 L 484.399994 211.800003 L 484.399994 216.300003 Z M 462.200012 229.800003 L 477.399994 222.100006 L 477.399994 224.100006 L 465.700012 231.800003 Z M 399.899994 190.300003 L 412.700012 184.300003 L 422.200012 173.800003 L 427.399994 176.100006 L 429.700012 171.300003 L 438.399994 171.100006 L 436.200012 175.100006 L 443.399994 181.300003 L 448.200012 176.5 L 448.200012 169.800003 L 450.399994 170.5 L 452.899994 182.5 L 460.700012 193.5 L 459.899994 201.800003 L 445.700012 216.5 L 433.399994 215.800003 L 431.899994 207.5 L 427.700012 209.300003 L 423.700012 205.800003 L 399.399994 211.100006 L 397.899994 209.300003 L 399.899994 204.5 Z"/>
        </g>
    </g>
    <path id="path13085" fill="none" stroke="#000000" stroke-width="0.25" d="M 267.21814 131.404831 L 278.259613 130.771347 L 281.495636 126.422455 L 283.78183 131.367889"/>
    <path id="Oval" fill="none" stroke="#ffd700" stroke-width="13" stroke-linecap="round" stroke-linejoin="round" d="M 404 148 C 404 142.477142 399.522858 138 394 138 C 388.477142 138 384 142.477142 384 148 C 384 153.522858 388.477142 158 394 158 C 399.522858 158 404 153.522858 404 148 Z"/>
</svg>
