<svg width="152" height="111" viewBox="0 0 152 111" fill="none" xmlns="http://www.w3.org/2000/svg">
<path d="M73.8231 102.365H115.985C116.358 102.379 116.729 102.393 117.104 102.393C117.48 102.393 117.851 102.379 118.224 102.365H118.282C134.734 101.743 147.88 88.218 147.88 71.6141C147.88 56.0576 136.337 43.2039 121.349 41.134C117.491 28.5428 105.776 19.3842 91.9194 19.3842C91.9194 19.3842 73.8258 66.9767 73.8203 102.362L73.8231 102.365Z" fill="white"/>
<path d="M61.1644 104.38H37.5519C20.4892 104.38 6.60742 90.498 6.60742 73.4354V73.3276C7.25135 61.4191 13.6215 51.8818 25.0326 45.7465C31.7565 42.1316 38.2953 40.7194 40.8682 40.2717C47.6778 25.2044 58.4145 19.3814 66.3047 17.1539C75.0351 14.6915 82.1155 15.9821 82.414 16.0402L81.6788 19.9424C81.6125 19.9314 75.0848 18.7623 67.2223 21.023C56.784 24.0215 48.9961 31.3645 44.074 42.8474L43.6263 43.8948L42.496 44.0358C42.4214 44.0468 34.6279 45.0722 26.8151 49.2978C16.6284 54.8084 11.1674 62.9474 10.5815 73.4851C10.6119 88.3314 22.7001 100.403 37.5546 100.403H61.1671V104.374L61.1644 104.38Z" fill="white"/>
<path d="M67.3883 54.311C70.8927 54.311 73.7336 51.4701 73.7336 47.9657C73.7336 44.4613 70.8927 41.6204 67.3883 41.6204C63.8839 41.6204 61.043 44.4613 61.043 47.9657C61.043 51.4701 63.8839 54.311 67.3883 54.311Z" fill="white"/>
<path d="M47.407 79.8608C51.7265 79.8608 55.2281 76.3592 55.2281 72.0397C55.2281 67.7203 51.7265 64.2186 47.407 64.2186C43.0876 64.2186 39.5859 67.7203 39.5859 72.0397C39.5859 76.3592 43.0876 79.8608 47.407 79.8608Z" fill="white"/>
<path d="M46.3605 42.6423C46.9243 40.2364 45.4311 37.8289 43.0252 37.265C40.6192 36.7012 38.2118 38.1945 37.6479 40.6004C37.0841 43.0063 38.5773 45.4138 40.9832 45.9776C43.3892 46.5415 45.7966 45.0482 46.3605 42.6423Z" fill="white"/>
<path d="M31.6324 32.7684C33.1984 32.7684 34.4679 31.4989 34.4679 29.9329C34.4679 28.3669 33.1984 27.0974 31.6324 27.0974C30.0664 27.0974 28.7969 28.3669 28.7969 29.9329C28.7969 31.4989 30.0664 32.7684 31.6324 32.7684Z" fill="white"/>
<path d="M73.0257 6.96562C73.2758 5.41972 72.2253 3.96378 70.6794 3.71368C69.1335 3.46357 67.6776 4.51401 67.4275 6.05991C67.1774 7.60581 68.2278 9.06176 69.7737 9.31186C71.3196 9.56197 72.7755 8.51152 73.0257 6.96562Z" fill="white"/>
<path d="M11.4312 105.231C12.9972 105.231 14.2667 103.961 14.2667 102.395C14.2667 100.829 12.9972 99.56 11.4312 99.56C9.8652 99.56 8.5957 100.829 8.5957 102.395C8.5957 103.961 9.8652 105.231 11.4312 105.231Z" fill="white"/>
<path d="M61.0104 106.531C63.2972 105.595 64.3918 102.982 63.4553 100.695C62.5188 98.4081 59.9059 97.3134 57.6191 98.2499C55.3323 99.1864 54.2377 101.799 55.1742 104.086C56.1106 106.373 58.7236 107.468 61.0104 106.531Z" fill="white"/>
<path d="M85.7763 18.6811C86.3481 16.2771 84.8629 13.8647 82.4588 13.2929C80.0548 12.721 77.6424 14.2063 77.0706 16.6104C76.4987 19.0144 77.984 21.4268 80.388 21.9986C82.7921 22.5705 85.2045 21.0852 85.7763 18.6811Z" fill="white"/>
<path d="M36.004 103.368C36.5372 100.955 35.0134 98.567 32.6005 98.0338C30.1876 97.5007 27.7993 99.0245 27.2662 101.437C26.733 103.85 28.2568 106.239 30.6697 106.772C33.0826 107.305 35.4709 105.781 36.004 103.368Z" fill="white"/>
<path d="M63.7849 25.4586C66.256 25.4586 68.2592 23.4554 68.2592 20.9843C68.2592 18.5132 66.256 16.5099 63.7849 16.5099C61.3138 16.5099 59.3105 18.5132 59.3105 20.9843C59.3105 23.4554 61.3138 25.4586 63.7849 25.4586Z" fill="white"/>
<path d="M8.59152 77.9124C11.0626 77.9124 13.0658 75.9092 13.0658 73.4381C13.0658 70.967 11.0626 68.9638 8.59152 68.9638C6.12041 68.9638 4.11719 70.967 4.11719 73.4381C4.11719 75.9092 6.12041 77.9124 8.59152 77.9124Z" fill="white"/>
<path d="M19.8864 56.7844C22.3575 56.7844 24.3608 54.7812 24.3608 52.3101C24.3608 49.839 22.3575 47.8358 19.8864 47.8358C17.4153 47.8358 15.4121 49.839 15.4121 52.3101C15.4121 54.7812 17.4153 56.7844 19.8864 56.7844Z" fill="white"/>
<path d="M8.63645 74.5933L8.55078 72.2802L46.0395 70.9287L40.8107 40.5425L66.0178 46.454L62.6351 21.1363L64.9317 20.8295L68.7566 49.4774L43.6877 43.5964L48.7727 73.1507L8.63645 74.5933Z" fill="white"/>
<path d="M32.6616 102.929L30.6055 101.859L47.5549 69.2429L60.3892 101.973L58.2335 102.818L47.2591 74.8365L32.6616 102.929Z" fill="white"/>
<path d="M47.6101 73.6094L19.2109 53.2525L20.5624 51.3677L47.2066 70.47L66.4968 47.225L68.2793 48.7063L47.6101 73.6094Z" fill="white"/>
<path d="M32.5012 29.1731L30.7578 30.6976L41.3734 42.8365L43.1167 41.3119L32.5012 29.1731Z" fill="white"/>
</svg>
